STARTFONT 2.1
FONT --Aa360Gap-Regular-R-Normal--38-360-76-76-P-247-GEM-0
SIZE 36 76 76
FONTBOUNDINGBOX 55 45 -1 -9
METRICSSET 2
STARTPROPERTIES 21
FONT_ASCENT 29
FONT_DESCENT 9
PIXEL_SIZE 38
RESOLUTION_X 76
RESOLUTION_Y 76
POINT_SIZE 360
FACE_NAME "Swiss"
FOUNDRY ""
FAMILY_NAME "Aa360Gap"
WEIGHT_NAME "Regular"
RELATIVE_WEIGHT 50
SLANT "R"
SPACING "P"
SETWIDTH_NAME "Normal"
RELATIVE_SETWIDTH 50
ADD_STYLE_NAME ""
AVERAGE_WIDTH 247
UNDERLINE_THICKNESS 2
CHARSET_REGISTRY "GEM"
CHARSET_ENCODING "0"
GDOS "font-id=2 left-offset=4 right-offset=14"
ENDPROPERTIES
CHARS 194
STARTCHAR space
ENCODING 32
SWIDTH 316 0
DWIDTH 12 0
BBX 0 0 12 36
VVECTOR 18 36
SWIDTH1 0 -1184
DWIDTH1 0 -45
BITMAP 
ENDCHAR
STARTCHAR exclam
ENCODING 33
SWIDTH 395 0
DWIDTH 15 0
BBX 4 27 5 0
VVECTOR 7 36
SWIDTH1 0 -1184
DWIDTH1 0 -45
BITMAP 
F0
F0
F0
F0
F0
F0
F0
F0
F0
F0
F0
F0
F0
F0
F0
60
60
60
60
60
60
00
00
F0
F0
F0
F0
ENDCHAR
STARTCHAR quotedbl
ENCODING 34
SWIDTH 368 0
DWIDTH 14 0
BBX 10 10 2 16
VVECTOR 7 36
SWIDTH1 0 -1184
DWIDTH1 0 -45
BITMAP 
E1C0
E1C0
E1C0
E1C0
E1C0
E1C0
E1C0
E1C0
E1C0
E1C0
ENDCHAR
STARTCHAR numbersign
ENCODING 35
SWIDTH 921 0
DWIDTH 35 0
BBX 31 27 2 -1
VVECTOR 18 36
SWIDTH1 0 -1184
DWIDTH1 0 -45
BITMAP 
0001C0F0
0003C0E0
000381E0
000781C0
000783C0
000F0380
000F0780
001E0780
0FFFFFFE
1FFFFFFC
1FFFFFFC
003C1E00
00781E00
00783C00
00703C00
00F03800
7FFFFFF0
7FFFFFF0
FFFFFFE0
01C0F000
03C0E000
0381E000
0781C000
0783C000
0F03C000
0F078000
1E078000
ENDCHAR
STARTCHAR dollar
ENCODING 36
SWIDTH 658 0
DWIDTH 25 0
BBX 23 32 1 -4
VVECTOR 13 36
SWIDTH1 0 -1184
DWIDTH1 0 -45
BITMAP 
001800
01FF00
07FFE0
1FFFF0
3F18F8
3C187C
78183C
78183C
781800
781800
7C1800
3F1800
1FF800
0FFF80
01FFF0
001FF8
0019FC
00187E
00183E
F0181E
F0181E
78181E
78183E
7C187C
3F98F8
1FFFF0
0FFFE0
01FF00
001800
001800
001800
001800
ENDCHAR
STARTCHAR percent
ENCODING 37
SWIDTH 1000 0
DWIDTH 38 0
BBX 34 27 2 -1
VVECTOR 19 36
SWIDTH1 0 -1184
DWIDTH1 0 -45
BITMAP 
0000007000
07C000E000
1FF000C000
3FF801C000
783C038000
F01E070000
E00E060000
E00E0E0000
E00E1C0000
F01E180000
783C380000
3FF8700000
1FF0E00000
07C0C0F800
0001C3FE00
000387FF00
00030F0780
00071E03C0
000E1C01C0
001C1C01C0
00181C01C0
00381E03C0
00700F0780
00E007FF00
00E003FE00
01C000F800
0380000000
ENDCHAR
STARTCHAR ampersand
ENCODING 38
SWIDTH 816 0
DWIDTH 31 0
BBX 28 28 3 0
VVECTOR 19 36
SWIDTH1 0 -1184
DWIDTH1 0 -45
BITMAP 
00FC0000
03FF0000
07FFC000
0787C000
0F01E000
0F01E000
0F01E000
0F01E000
0F03C000
0787C000
07CF8000
03FF0000
01FC0000
03F80000
0FFC0000
1F3E0F00
3C1F0F00
780F8F00
F807DE00
F003FE00
F001FC00
F000FC00
F800FC00
7801FE00
7E07FF80
3FFFCFC0
1FFF07E0
03F80010
ENDCHAR
STARTCHAR quotesingle
ENCODING 39
SWIDTH 289 0
DWIDTH 11 0
BBX 4 9 4 18
VVECTOR 7 36
SWIDTH1 0 -1184
DWIDTH1 0 -45
BITMAP 
F0
F0
F0
F0
30
30
70
E0
C0
ENDCHAR
STARTCHAR parenleft
ENCODING 40
SWIDTH 395 0
DWIDTH 15 0
BBX 10 36 4 -8
VVECTOR 11 36
SWIDTH1 0 -1184
DWIDTH1 0 -45
BITMAP 
01C0
0380
0780
0700
0E00
1E00
1C00
3C00
3C00
3800
7800
7800
7800
F000
F000
F000
F000
F000
F000
F000
F000
F000
F000
7800
7800
7800
7800
3C00
3C00
1C00
1E00
0E00
0700
0780
0380
01C0
ENDCHAR
STARTCHAR parenright
ENCODING 41
SWIDTH 395 0
DWIDTH 15 0
BBX 10 36 1 -8
VVECTOR 5 36
SWIDTH1 0 -1184
DWIDTH1 0 -45
BITMAP 
E000
7000
3800
3800
1C00
1E00
0E00
0F00
0F00
0780
0780
0780
0780
03C0
03C0
03C0
03C0
03C0
03C0
03C0
03C0
03C0
03C0
0780
0780
0780
0700
0F00
0F00
0E00
1E00
1C00
3800
7800
7000
E000
ENDCHAR
STARTCHAR asterisk
ENCODING 42
SWIDTH 605 0
DWIDTH 23 0
BBX 18 14 3 13
VVECTOR 13 36
SWIDTH1 0 -1184
DWIDTH1 0 -45
BITMAP 
01E000
01E000
01E000
01E000
61E180
7DEF80
FFFFC0
1FFE00
03F000
07F800
0F3C00
1E1E00
3C0F00
080400
ENDCHAR
STARTCHAR plus
ENCODING 43
SWIDTH 1000 0
DWIDTH 38 0
BBX 27 22 6 0
VVECTOR 20 36
SWIDTH1 0 -1184
DWIDTH1 0 -45
BITMAP 
000E0000
000E0000
000E0000
000E0000
000E0000
000E0000
000E0000
000E0000
000E0000
FFFFFFE0
FFFFFFE0
FFFFFFE0
000E0000
000E0000
000E0000
000E0000
000E0000
000E0000
000E0000
000E0000
000E0000
000E0000
ENDCHAR
STARTCHAR comma
ENCODING 44
SWIDTH 316 0
DWIDTH 12 0
BBX 4 10 4 -6
VVECTOR 6 36
SWIDTH1 0 -1184
DWIDTH1 0 -45
BITMAP 
F0
F0
F0
F0
30
30
30
60
E0
80
ENDCHAR
STARTCHAR hyphen
ENCODING 45
SWIDTH 368 0
DWIDTH 14 0
BBX 11 3 2 8
VVECTOR 8 36
SWIDTH1 0 -1184
DWIDTH1 0 -45
BITMAP 
FFE0
FFE0
FFE0
ENDCHAR
STARTCHAR period
ENCODING 46
SWIDTH 316 0
DWIDTH 12 0
BBX 4 4 4 0
VVECTOR 6 36
SWIDTH1 0 -1184
DWIDTH1 0 -45
BITMAP 
F0
F0
F0
F0
ENDCHAR
STARTCHAR slash
ENCODING 47
SWIDTH 368 0
DWIDTH 14 0
BBX 14 32 0 -4
VVECTOR 7 36
SWIDTH1 0 -1184
DWIDTH1 0 -45
BITMAP 
001C
0018
0038
0038
0030
0070
0070
0060
00E0
00E0
01C0
01C0
01C0
0380
0380
0380
0700
0700
0700
0E00
0E00
0C00
1C00
1C00
1800
3800
3800
3000
7000
7000
6000
E000
ENDCHAR
STARTCHAR zero
ENCODING 48
SWIDTH 658 0
DWIDTH 25 0
BBX 22 27 2 0
VVECTOR 14 36
SWIDTH1 0 -1184
DWIDTH1 0 -45
BITMAP 
01FE00
07FF80
1FFFE0
3F03F0
3E01F0
7C00F8
780078
780078
700038
F0003C
F0003C
F0003C
F0003C
F0003C
F0003C
F0003C
F0003C
F0003C
700038
780078
780078
7C00F8
3E01F0
3F03F0
1FFFE0
07FF80
01FE00
ENDCHAR
STARTCHAR one
ENCODING 49
SWIDTH 658 0
DWIDTH 25 0
BBX 11 27 4 0
VVECTOR 7 36
SWIDTH1 0 -1184
DWIDTH1 0 -45
BITMAP 
00E0
00E0
01E0
03E0
0FE0
FFE0
FFE0
FFE0
01E0
01E0
01E0
01E0
01E0
01E0
01E0
01E0
01E0
01E0
01E0
01E0
01E0
01E0
01E0
01E0
01E0
01E0
01E0
ENDCHAR
STARTCHAR two
ENCODING 50
SWIDTH 658 0
DWIDTH 25 0
BBX 23 27 1 0
VVECTOR 13 36
SWIDTH1 0 -1184
DWIDTH1 0 -45
BITMAP 
00FF80
07FFE0
0FFFF8
1F81FC
3E007C
3C003E
7C001E
78001E
78001E
78001E
00003E
00003C
00007C
0001F8
0007F0
003FE0
00FF80
03FC00
07F000
1FC000
3F0000
3E0000
7C0000
780000
7FFFFE
FFFFFE
FFFFFE
ENDCHAR
STARTCHAR three
ENCODING 51
SWIDTH 658 0
DWIDTH 25 0
BBX 22 27 2 0
VVECTOR 14 36
SWIDTH1 0 -1184
DWIDTH1 0 -45
BITMAP 
01FE00
0FFFC0
1FFFE0
3F03F0
3C00F8
780078
780078
780078
0000F8
0000F0
0003E0
007FC0
007FC0
007FF0
0001F8
0000F8
00007C
00003C
F0003C
F0003C
F8003C
780078
7C00F8
3F03F0
1FFFF0
0FFFC0
03FE00
ENDCHAR
STARTCHAR four
ENCODING 52
SWIDTH 658 0
DWIDTH 25 0
BBX 22 26 2 0
VVECTOR 14 36
SWIDTH1 0 -1184
DWIDTH1 0 -45
BITMAP 
0003C0
0007C0
000FC0
001FC0
003FC0
007BC0
00F3C0
01E3C0
03C3C0
03C3C0
0783C0
0F03C0
1E03C0
3C03C0
7803C0
F003C0
FFFFFC
FFFFFC
FFFFFC
0003C0
0003C0
0003C0
0003C0
0003C0
0003C0
0003C0
ENDCHAR
STARTCHAR five
ENCODING 53
SWIDTH 658 0
DWIDTH 25 0
BBX 22 26 2 0
VVECTOR 14 36
SWIDTH1 0 -1184
DWIDTH1 0 -45
BITMAP 
1FFFF0
1FFFF0
1FFFF0
3C0000
3C0000
3C0000
380000
380000
39FF00
7FFFC0
7FFFE0
7E03F0
7800F8
000078
00007C
00003C
00003C
00003C
00003C
F0007C
F00078
7800F8
7E03F0
3FFFE0
0FFFC0
03FE00
ENDCHAR
STARTCHAR six
ENCODING 54
SWIDTH 658 0
DWIDTH 25 0
BBX 22 27 2 0
VVECTOR 14 36
SWIDTH1 0 -1184
DWIDTH1 0 -45
BITMAP 
00FF00
03FFE0
0FFFF0
1F81F8
3E0078
3C0078
7C003C
780000
780000
780000
F0FF00
F3FFC0
FFFFF0
FF03F8
FC00F8
F8007C
F8003C
F8003C
F0003C
78003C
78003C
780078
3C00F8
3F03F0
1FFFE0
07FFC0
01FE00
ENDCHAR
STARTCHAR seven
ENCODING 55
SWIDTH 658 0
DWIDTH 25 0
BBX 22 26 2 0
VVECTOR 14 36
SWIDTH1 0 -1184
DWIDTH1 0 -45
BITMAP 
FFFFFC
FFFFFC
FFFFFC
000078
0000F0
0001E0
0003C0
000780
000F80
000F00
001E00
003E00
007C00
007800
00F800
00F000
01F000
01E000
03E000
03E000
03C000
07C000
07C000
07C000
078000
0F8000
ENDCHAR
STARTCHAR eight
ENCODING 56
SWIDTH 658 0
DWIDTH 25 0
BBX 22 27 2 0
VVECTOR 14 36
SWIDTH1 0 -1184
DWIDTH1 0 -45
BITMAP 
01FE00
0FFFC0
1FFFE0
3F03F0
7C00F8
780078
780078
780078
780078
3C00F0
3F03F0
0FFFC0
0FFFC0
3FFFF0
7F03F0
7C00F8
F8007C
F0003C
F0003C
F0003C
F0003C
F8007C
7C00F8
7F03F8
3FFFF0
0FFFC0
03FF00
ENDCHAR
STARTCHAR nine
ENCODING 57
SWIDTH 658 0
DWIDTH 25 0
BBX 22 27 2 0
VVECTOR 14 36
SWIDTH1 0 -1184
DWIDTH1 0 -45
BITMAP 
01FE00
0FFF80
1FFFE0
3F03F0
7C00F0
780078
F00078
F00078
F0003C
F0003C
F0007C
F8007C
7C00FC
7F03FC
3FFFFC
0FFF3C
03FC3C
000078
000078
000078
F000F8
F800F0
7801F0
7E07E0
3FFFC0
1FFF80
03FC00
ENDCHAR
STARTCHAR colon
ENCODING 58
SWIDTH 368 0
DWIDTH 14 0
BBX 4 20 5 0
VVECTOR 7 36
SWIDTH1 0 -1184
DWIDTH1 0 -45
BITMAP 
F0
F0
F0
F0
00
00
00
00
00
00
00
00
00
00
00
00
F0
F0
F0
F0
ENDCHAR
STARTCHAR semicolon
ENCODING 59
SWIDTH 368 0
DWIDTH 14 0
BBX 4 26 5 -6
VVECTOR 7 36
SWIDTH1 0 -1184
DWIDTH1 0 -45
BITMAP 
F0
F0
F0
F0
00
00
00
00
00
00
00
00
00
00
00
00
F0
F0
F0
F0
30
30
30
60
E0
80
ENDCHAR
STARTCHAR less
ENCODING 60
SWIDTH 1000 0
DWIDTH 38 0
BBX 26 20 6 1
VVECTOR 19 36
SWIDTH1 0 -1184
DWIDTH1 0 -45
BITMAP 
00000040
000003C0
00001FC0
0000FF00
0007F800
003FC000
01FE0000
0FF00000
7F800000
FC000000
FC000000
7F800000
0FF00000
01FE0000
003FC000
0007F800
0000FF00
00001FC0
000003C0
00000040
ENDCHAR
STARTCHAR equal
ENCODING 61
SWIDTH 1000 0
DWIDTH 38 0
BBX 27 11 6 5
VVECTOR 20 36
SWIDTH1 0 -1184
DWIDTH1 0 -45
BITMAP 
FFFFFFE0
FFFFFFE0
FFFFFFE0
00000000
00000000
00000000
00000000
00000000
FFFFFFE0
FFFFFFE0
FFFFFFE0
ENDCHAR
STARTCHAR greater
ENCODING 62
SWIDTH 1000 0
DWIDTH 38 0
BBX 26 20 6 1
VVECTOR 19 36
SWIDTH1 0 -1184
DWIDTH1 0 -45
BITMAP 
80000000
F0000000
FE000000
3FC00000
07F80000
00FF0000
001FE000
0003FC00
00007F80
00000FC0
00000FC0
00007F80
0003FC00
001FE000
00FF0000
07F80000
3FC00000
FE000000
F0000000
80000000
ENDCHAR
STARTCHAR question
ENCODING 63
SWIDTH 632 0
DWIDTH 24 0
BBX 20 28 2 0
VVECTOR 12 36
SWIDTH1 0 -1184
DWIDTH1 0 -45
BITMAP 
03FC00
0FFF80
3FFFC0
3F07E0
7C01E0
F800F0
F000F0
F000F0
F000F0
0001F0
0001E0
0007E0
000FC0
001F80
003E00
007C00
007800
00F000
00F000
00F000
00F000
000000
000000
000000
00F000
00F000
00F000
00F000
ENDCHAR
STARTCHAR at
ENCODING 64
SWIDTH 1184 0
DWIDTH 45 0
BBX 40 32 3 -6
VVECTOR 24 36
SWIDTH1 0 -1184
DWIDTH1 0 -45
BITMAP 
00007FF000
000FFFFF00
003F801FC0
00FC0003E0
03E00000F8
0780000038
0F0000001C
1E0000000E
3C003E000E
3801FF9C07
7803E1F807
700780F807
700F007807
E01E007807
E01E007007
E01E007007
E03C00F00E
E03C00F00E
E03C00E01E
E03C01E01C
E03C01E038
701E03E0F0
701F0EF3E0
700FFCFFC0
3803F07E00
1C00000000
1E00000000
07800000C0
03E00003E0
00FE003F00
001FFFFC00
0001FFC000
ENDCHAR
STARTCHAR A
ENCODING 65
SWIDTH 763 0
DWIDTH 29 0
BBX 29 27 0 0
VVECTOR 15 36
SWIDTH1 0 -1184
DWIDTH1 0 -45
BITMAP 
000F8000
001FC000
001FC000
003FE000
003DE000
003DE000
0078F000
0078F000
00F8F800
00F07800
01F07C00
01E03C00
03E03E00
03C03E00
03C01E00
07C01F00
07FFFF00
0FFFFF80
0FFFFF80
1F0007C0
1E0007C0
3E0003E0
3E0003E0
3C0001E0
7C0001F0
780000F0
F80000F8
ENDCHAR
STARTCHAR B
ENCODING 66
SWIDTH 789 0
DWIDTH 30 0
BBX 24 27 4 0
VVECTOR 17 36
SWIDTH1 0 -1184
DWIDTH1 0 -45
BITMAP 
FFFFC0
FFFFF0
FFFFF8
F000FC
F0003C
F0003E
F0003E
F0003C
F0003C
F0007C
F000F8
FFFFF0
FFFFF0
FFFFFC
F0007E
F0001E
F0001F
F0000F
F0000F
F0000F
F0000F
F0001F
F0003E
F0007E
FFFFFC
FFFFF8
FFFFC0
ENDCHAR
STARTCHAR C
ENCODING 67
SWIDTH 842 0
DWIDTH 32 0
BBX 27 28 3 0
VVECTOR 17 36
SWIDTH1 0 -1184
DWIDTH1 0 -45
BITMAP 
003FE000
01FFFC00
07FFFF00
0FE03F80
1F000F80
3E0007C0
3C0003C0
7C0001E0
780001E0
78000000
F0000000
F0000000
F0000000
F0000000
F0000000
F0000000
F0000000
F00001E0
780001E0
780001E0
7C0001C0
3C0003C0
3E0007C0
1F800F80
0FE03F00
07FFFE00
01FFF800
003FE000
ENDCHAR
STARTCHAR D
ENCODING 68
SWIDTH 842 0
DWIDTH 32 0
BBX 26 27 4 0
VVECTOR 18 36
SWIDTH1 0 -1184
DWIDTH1 0 -45
BITMAP 
FFFF8000
FFFFF000
FFFFFC00
F000FE00
F0003F00
F0001F00
F0000F80
F0000780
F0000780
F00003C0
F00003C0
F00003C0
F00003C0
F00003C0
F00003C0
F00003C0
F00003C0
F00007C0
F0000780
F0000780
F0000F80
F0001F00
F0003F00
F000FE00
FFFFFC00
FFFFF000
FFFF8000
ENDCHAR
STARTCHAR E
ENCODING 69
SWIDTH 763 0
DWIDTH 29 0
BBX 23 27 4 0
VVECTOR 17 36
SWIDTH1 0 -1184
DWIDTH1 0 -45
BITMAP 
FFFFFE
FFFFFE
FFFFFE
F00000
F00000
F00000
F00000
F00000
F00000
F00000
F00000
F00000
FFFFF8
FFFFF8
FFFFF8
F00000
F00000
F00000
F00000
F00000
F00000
F00000
F00000
F00000
FFFFFE
FFFFFE
FFFFFE
ENDCHAR
STARTCHAR F
ENCODING 70
SWIDTH 684 0
DWIDTH 26 0
BBX 20 27 4 0
VVECTOR 15 36
SWIDTH1 0 -1184
DWIDTH1 0 -45
BITMAP 
FFFFF0
FFFFF0
FFFFF0
F00000
F00000
F00000
F00000
F00000
F00000
F00000
F00000
F00000
FFFFC0
FFFFC0
FFFFC0
F00000
F00000
F00000
F00000
F00000
F00000
F00000
F00000
F00000
F00000
F00000
F00000
ENDCHAR
STARTCHAR G
ENCODING 71
SWIDTH 921 0
DWIDTH 35 0
BBX 29 28 3 0
VVECTOR 18 36
SWIDTH1 0 -1184
DWIDTH1 0 -45
BITMAP 
003FF000
01FFFE00
07FFFF80
0FE01FC0
1F8007E0
3F0003E0
3E0001F0
7C0000F0
780000F0
78000000
F0000000
F0000000
F0000000
F001FFF8
F001FFF8
F001FFF8
F0000078
F0000078
78000078
780000F8
7C0000F8
3C0001F8
3E0003F8
1F8007F8
0FE03FF8
07FFFE38
01FFFC38
003FE000
ENDCHAR
STARTCHAR H
ENCODING 72
SWIDTH 868 0
DWIDTH 33 0
BBX 26 27 4 0
VVECTOR 18 36
SWIDTH1 0 -1184
DWIDTH1 0 -45
BITMAP 
F00003C0
F00003C0
F00003C0
F00003C0
F00003C0
F00003C0
F00003C0
F00003C0
F00003C0
F00003C0
F00003C0
FFFFFFC0
FFFFFFC0
FFFFFFC0
F00003C0
F00003C0
F00003C0
F00003C0
F00003C0
F00003C0
F00003C0
F00003C0
F00003C0
F00003C0
F00003C0
F00003C0
F00003C0
ENDCHAR
STARTCHAR I
ENCODING 73
SWIDTH 289 0
DWIDTH 11 0
BBX 4 27 4 0
VVECTOR 7 36
SWIDTH1 0 -1184
DWIDTH1 0 -45
BITMAP 
F0
F0
F0
F0
F0
F0
F0
F0
F0
F0
F0
F0
F0
F0
F0
F0
F0
F0
F0
F0
F0
F0
F0
F0
F0
F0
F0
ENDCHAR
STARTCHAR J
ENCODING 74
SWIDTH 605 0
DWIDTH 23 0
BBX 19 27 1 0
VVECTOR 10 36
SWIDTH1 0 -1184
DWIDTH1 0 -45
BITMAP 
0001E0
0001E0
0001E0
0001E0
0001E0
0001E0
0001E0
0001E0
0001E0
0001E0
0001E0
0001E0
0001E0
0001E0
0001E0
0001E0
0001E0
0001E0
F001E0
F001E0
F001E0
F001E0
7803E0
7E07C0
3FFFC0
1FFF00
07FC00
ENDCHAR
STARTCHAR K
ENCODING 75
SWIDTH 763 0
DWIDTH 29 0
BBX 26 27 4 0
VVECTOR 19 36
SWIDTH1 0 -1184
DWIDTH1 0 -45
BITMAP 
F0001FC0
F0003F00
F0007E00
F000F800
F003F000
F007E000
F00FC000
F01F0000
F07E0000
F0FC0000
F1F80000
F3F80000
F7FC0000
FFFE0000
FF3E0000
FE1F0000
F80F8000
F00FC000
F007E000
F003F000
F001F000
F000F800
F0007C00
F0003E00
F0003F00
F0001F80
F0000FC0
ENDCHAR
STARTCHAR L
ENCODING 76
SWIDTH 632 0
DWIDTH 24 0
BBX 20 27 4 0
VVECTOR 16 36
SWIDTH1 0 -1184
DWIDTH1 0 -45
BITMAP 
F00000
F00000
F00000
F00000
F00000
F00000
F00000
F00000
F00000
F00000
F00000
F00000
F00000
F00000
F00000
F00000
F00000
F00000
F00000
F00000
F00000
F00000
F00000
F00000
FFFFF0
FFFFF0
FFFFF0
ENDCHAR
STARTCHAR M
ENCODING 77
SWIDTH 1000 0
DWIDTH 38 0
BBX 31 27 4 0
VVECTOR 20 36
SWIDTH1 0 -1184
DWIDTH1 0 -45
BITMAP 
FE00007E
FE0000FE
FE0000FE
FF0001FE
FF0001FE
F78001DE
F78003DE
F78003DE
F3C0079E
F3C0079E
F3E0071E
F1E00F1E
F1E00F1E
F0F01E1E
F0F01E1E
F0783C1E
F0783C1E
F0783C1E
F03C781E
F03C781E
F01EF01E
F01EF01E
F01EE01E
F00FE01E
F00FE01E
F007C01E
F007C01E
ENDCHAR
STARTCHAR N
ENCODING 78
SWIDTH 868 0
DWIDTH 33 0
BBX 26 27 4 0
VVECTOR 18 36
SWIDTH1 0 -1184
DWIDTH1 0 -45
BITMAP 
F80003C0
FC0003C0
FE0003C0
FE0003C0
FF0003C0
FF8003C0
F7C003C0
F3E003C0
F3F003C0
F1F003C0
F0F803C0
F07C03C0
F03E03C0
F03F03C0
F01F03C0
F00F83C0
F007C3C0
F003E3C0
F001F3C0
F001F3C0
F000FBC0
F0007FC0
F0003FC0
F0001FC0
F0001FC0
F0000FC0
F00007C0
ENDCHAR
STARTCHAR O
ENCODING 79
SWIDTH 921 0
DWIDTH 35 0
BBX 30 28 3 0
VVECTOR 19 36
SWIDTH1 0 -1184
DWIDTH1 0 -45
BITMAP 
003FF000
01FFFE00
07FFFF80
0FE01FC0
1F8007E0
3E0001F0
3C0000F0
7C0000F8
78000078
78000078
F000003C
F000003C
F000003C
F000003C
F000003C
F000003C
F000003C
F000003C
78000078
78000078
7C0000F8
3C0000F0
3E0001F0
1F8007E0
0FE01FC0
07FFFF80
01FFFE00
003FF000
ENDCHAR
STARTCHAR P
ENCODING 80
SWIDTH 763 0
DWIDTH 29 0
BBX 23 27 4 0
VVECTOR 17 36
SWIDTH1 0 -1184
DWIDTH1 0 -45
BITMAP 
FFFFC0
FFFFF0
FFFFF8
F000FC
F0003E
F0001E
F0001E
F0001E
F0001E
F0001E
F0003C
F000FC
FFFFF8
FFFFF0
FFFFC0
F00000
F00000
F00000
F00000
F00000
F00000
F00000
F00000
F00000
F00000
F00000
F00000
ENDCHAR
STARTCHAR Q
ENCODING 81
SWIDTH 921 0
DWIDTH 35 0
BBX 30 30 3 -2
VVECTOR 19 36
SWIDTH1 0 -1184
DWIDTH1 0 -45
BITMAP 
003FF000
01FFFE00
07FFFF80
0FE01FC0
1F8007E0
3E0001F0
3C0000F0
7C0000F8
78000078
7800007C
F000003C
F000003C
F000003C
F000003C
F000003C
F000003C
F000003C
F000003C
7800007C
78002078
7C0070F8
3C00FCF0
3E007FF0
1F801FE0
0FE03FC0
07FFFFF0
01FFFEF8
003FF07C
00000038
00000010
ENDCHAR
STARTCHAR R
ENCODING 82
SWIDTH 789 0
DWIDTH 30 0
BBX 25 27 4 0
VVECTOR 18 36
SWIDTH1 0 -1184
DWIDTH1 0 -45
BITMAP 
FFFFE000
FFFFF800
FFFFFC00
F0007E00
F0001F00
F0000F00
F0000F00
F0000F00
F0000F00
F0001F00
F0001E00
F0007E00
FFFFF800
FFFFF800
FFFFFC00
F0007E00
F0001E00
F0001E00
F0001E00
F0001E00
F0001E00
F0000F00
F0000F00
F0000F00
F0000F00
F0000F00
F0000F80
ENDCHAR
STARTCHAR S
ENCODING 83
SWIDTH 763 0
DWIDTH 29 0
BBX 25 28 2 0
VVECTOR 15 36
SWIDTH1 0 -1184
DWIDTH1 0 -45
BITMAP 
00FF8000
07FFF000
0FFFFC00
1F80FC00
3E003E00
3C001F00
78001F00
78000F00
78000F00
78000000
7C000000
3F800000
1FFC0000
0FFFE000
03FFFC00
001FFE00
0000FF00
00001F80
00000F80
F0000780
F0000780
F8000780
78000F80
7E001F00
3F807E00
1FFFFC00
07FFF800
00FFC000
ENDCHAR
STARTCHAR T
ENCODING 84
SWIDTH 684 0
DWIDTH 26 0
BBX 26 27 0 0
VVECTOR 13 36
SWIDTH1 0 -1184
DWIDTH1 0 -45
BITMAP 
FFFFFFC0
FFFFFFC0
FFFFFFC0
001E0000
001E0000
001E0000
001E0000
001E0000
001E0000
001E0000
001E0000
001E0000
001E0000
001E0000
001E0000
001E0000
001E0000
001E0000
001E0000
001E0000
001E0000
001E0000
001E0000
001E0000
001E0000
001E0000
001E0000
ENDCHAR
STARTCHAR U
ENCODING 85
SWIDTH 842 0
DWIDTH 32 0
BBX 25 27 4 0
VVECTOR 17 36
SWIDTH1 0 -1184
DWIDTH1 0 -45
BITMAP 
F0000780
F0000780
F0000780
F0000780
F0000780
F0000780
F0000780
F0000780
F0000780
F0000780
F0000780
F0000780
F0000780
F0000780
F0000780
F0000780
F0000780
F0000780
F0000780
F0000780
F8000F80
78000F00
7E003F00
3F80FE00
1FFFFC00
0FFFF000
01FF8000
ENDCHAR
STARTCHAR V
ENCODING 86
SWIDTH 763 0
DWIDTH 29 0
BBX 29 27 0 0
VVECTOR 15 36
SWIDTH1 0 -1184
DWIDTH1 0 -45
BITMAP 
F80000F8
780000F0
7C0001F0
3C0001E0
3E0003E0
3E0003E0
1F0007C0
1F0007C0
0F000780
0F800F80
07800F00
07C01F00
03C01E00
03E03E00
03E03E00
01E03C00
01F07C00
00F07800
00F8F800
0078F000
007DF000
003DE000
003FE000
003FE000
001FC000
001FC000
000F8000
ENDCHAR
STARTCHAR W
ENCODING 87
SWIDTH 1079 0
DWIDTH 41 0
BBX 41 27 0 0
VVECTOR 21 36
SWIDTH1 0 -1184
DWIDTH1 0 -45
BITMAP 
F0003E000F80
78007E000F00
78007F000F00
78007F001F00
7C00FF001E00
3C00F7801E00
3C00F7801E00
3C01E7803C00
1E01E3C03C00
1E01E3C03C00
1E03C3C07800
0F03C1E07800
0F03C1E07800
0F0781E0F000
0F8780F0F000
078780F0F000
078F00F1E000
07CF0079E000
03CF0079E000
03DE007BC000
03DE003FC000
03FE003FC000
01FC003F8000
01FC001F8000
01FC001F8000
00F8001F0000
00F8000F0000
ENDCHAR
STARTCHAR X
ENCODING 88
SWIDTH 711 0
DWIDTH 27 0
BBX 27 27 0 0
VVECTOR 14 36
SWIDTH1 0 -1184
DWIDTH1 0 -45
BITMAP 
7C0007C0
3E000F80
1F001F00
1F801F00
0F803E00
07C07C00
03E0F800
01F1F000
01F1F000
00FBE000
007FC000
003F8000
003F0000
001F0000
003F8000
007FC000
00FBE000
00F3E000
01F1F000
03E0F800
07C07C00
0F807E00
0F803E00
1F001F00
3E000F80
7C000FC0
FC0007E0
ENDCHAR
STARTCHAR Y
ENCODING 89
SWIDTH 711 0
DWIDTH 27 0
BBX 28 27 0 0
VVECTOR 14 36
SWIDTH1 0 -1184
DWIDTH1 0 -45
BITMAP 
FC0003F0
7E0003E0
3E0007C0
1F000F80
1F800F80
0F801F00
07C03E00
03E03C00
03E07C00
01F0F800
00F8F000
0079E000
007FE000
003FC000
001F8000
000F0000
000F0000
000F0000
000F0000
000F0000
000F0000
000F0000
000F0000
000F0000
000F0000
000F0000
000F0000
ENDCHAR
STARTCHAR Z
ENCODING 90
SWIDTH 711 0
DWIDTH 27 0
BBX 25 27 1 0
VVECTOR 14 36
SWIDTH1 0 -1184
DWIDTH1 0 -45
BITMAP 
7FFFFF80
7FFFFF80
7FFFFF80
00001F80
00003F00
00003E00
00007C00
0000F800
0001F000
0003E000
0007C000
000F8000
001F0000
003E0000
007C0000
00F80000
01F80000
03F00000
07E00000
0FC00000
1F800000
1F000000
3E000000
7C000000
FFFFFF80
FFFFFF80
FFFFFF80
ENDCHAR
STARTCHAR bracketleft
ENCODING 91
SWIDTH 421 0
DWIDTH 16 0
BBX 9 35 5 -8
VVECTOR 11 36
SWIDTH1 0 -1184
DWIDTH1 0 -45
BITMAP 
FF80
FF80
FF80
F000
F000
F000
F000
F000
F000
F000
F000
F000
F000
F000
F000
F000
F000
F000
F000
F000
F000
F000
F000
F000
F000
F000
F000
F000
F000
F000
F000
F000
FF80
FF80
FF80
ENDCHAR
STARTCHAR backslash
ENCODING 92
SWIDTH 368 0
DWIDTH 14 0
BBX 14 32 0 -4
VVECTOR 7 36
SWIDTH1 0 -1184
DWIDTH1 0 -45
BITMAP 
E000
6000
7000
7000
3000
3800
3800
1800
1C00
1C00
0C00
0E00
0E00
0700
0700
0700
0380
0380
0380
01C0
01C0
01C0
00E0
00E0
0060
0070
0070
0030
0038
0038
0018
001C
ENDCHAR
STARTCHAR bracketright
ENCODING 93
SWIDTH 421 0
DWIDTH 16 0
BBX 9 35 2 -8
VVECTOR 5 36
SWIDTH1 0 -1184
DWIDTH1 0 -45
BITMAP 
FF80
FF80
FF80
0780
0780
0780
0780
0780
0780
0780
0780
0780
0780
0780
0780
0780
0780
0780
0780
0780
0780
0780
0780
0780
0780
0780
0780
0780
0780
0780
0780
0780
FF80
FF80
FF80
ENDCHAR
STARTCHAR asciicircum
ENCODING 94
SWIDTH 1184 0
DWIDTH 45 0
BBX 26 10 9 16
VVECTOR 22 36
SWIDTH1 0 -1184
DWIDTH1 0 -45
BITMAP 
003F0000
007F8000
00FFC000
01F3E000
03E1F000
07807800
0F003C00
1E001E00
3C000F00
F00003C0
ENDCHAR
STARTCHAR underscore
ENCODING 95
SWIDTH 605 0
DWIDTH 23 0
BBX 23 3 0 -9
VVECTOR 12 36
SWIDTH1 0 -1184
DWIDTH1 0 -45
BITMAP 
FFFFFE
FFFFFE
FFFFFE
ENDCHAR
STARTCHAR grave
ENCODING 96
SWIDTH 289 0
DWIDTH 11 0
BBX 4 9 4 19
VVECTOR 7 36
SWIDTH1 0 -1184
DWIDTH1 0 -45
BITMAP 
30
70
E0
C0
C0
F0
F0
F0
F0
ENDCHAR
STARTCHAR a
ENCODING 97
SWIDTH 658 0
DWIDTH 25 0
BBX 22 21 2 0
VVECTOR 14 36
SWIDTH1 0 -1184
DWIDTH1 0 -45
BITMAP 
03FE00
0FFFC0
1FFFE0
3E03F0
7800F0
7800F0
0000F0
0001F0
01FFF0
1FFFF0
3FF8F0
7E00F0
F800F0
F000F0
F000F0
F001F0
F803F0
7C0FF0
7FFEFC
3FFC7C
0FE03C
ENDCHAR
STARTCHAR b
ENCODING 98
SWIDTH 711 0
DWIDTH 27 0
BBX 22 27 3 0
VVECTOR 15 36
SWIDTH1 0 -1184
DWIDTH1 0 -45
BITMAP 
F00000
F00000
F00000
F00000
F00000
F00000
F0FE00
F3FF80
F7FFE0
FF03F0
FC00F0
F800F8
F80078
F0003C
F0003C
F0003C
F0003C
F0003C
F0003C
F0003C
F80078
F80078
FC00F0
FF03F0
F7FFE0
F3FFC0
00FE00
ENDCHAR
STARTCHAR c
ENCODING 99
SWIDTH 632 0
DWIDTH 24 0
BBX 21 21 2 0
VVECTOR 13 36
SWIDTH1 0 -1184
DWIDTH1 0 -45
BITMAP 
01FE00
07FF80
1FFFE0
3F03F0
7C00F0
780078
780078
F00000
F00000
F00000
F00000
F00000
F00000
F00078
780078
7800F0
7C01F0
3F03E0
1FFFC0
0FFF80
01FC00
ENDCHAR
STARTCHAR d
ENCODING 100
SWIDTH 711 0
DWIDTH 27 0
BBX 22 27 2 0
VVECTOR 13 36
SWIDTH1 0 -1184
DWIDTH1 0 -45
BITMAP 
00003C
00003C
00003C
00003C
00003C
00003C
01FC3C
07FF3C
1FFFBC
3F03FC
3E00FC
7C007C
78007C
F0003C
F0003C
F0003C
F0003C
F0003C
F0003C
F0003C
78007C
78007C
3C00FC
3F03FC
1FFFBC
0FFF3C
01FC00
ENDCHAR
STARTCHAR e
ENCODING 101
SWIDTH 658 0
DWIDTH 25 0
BBX 21 21 2 0
VVECTOR 13 36
SWIDTH1 0 -1184
DWIDTH1 0 -45
BITMAP 
01FC00
07FF80
1FFFC0
3F03E0
3C01F0
7800F0
780078
F00078
F00078
FFFFF8
FFFFF8
FFFFF8
F00000
F00000
780078
7800F0
7C01F0
3F03E0
1FFFC0
0FFF80
01FC00
ENDCHAR
STARTCHAR f
ENCODING 102
SWIDTH 316 0
DWIDTH 12 0
BBX 12 27 0 0
VVECTOR 6 36
SWIDTH1 0 -1184
DWIDTH1 0 -45
BITMAP 
01F0
07F0
0FF0
0F80
0F00
0F00
0F00
FFF0
FFF0
FFF0
0F00
0F00
0F00
0F00
0F00
0F00
0F00
0F00
0F00
0F00
0F00
0F00
0F00
0F00
0F00
0F00
0F00
ENDCHAR
STARTCHAR g
ENCODING 103
SWIDTH 711 0
DWIDTH 27 0
BBX 22 29 2 -8
VVECTOR 13 36
SWIDTH1 0 -1184
DWIDTH1 0 -45
BITMAP 
00F800
07FE3C
1FFFBC
3F03FC
3C00FC
78007C
78007C
F0003C
F0003C
F0003C
F0003C
F0003C
F0003C
F0003C
78007C
78007C
3C00FC
3F03FC
1FFFBC
07FF3C
01FC3C
00003C
00003C
78007C
780078
3E01F0
3FFFE0
0FFFC0
03FE00
ENDCHAR
STARTCHAR h
ENCODING 104
SWIDTH 684 0
DWIDTH 26 0
BBX 20 27 3 0
VVECTOR 13 36
SWIDTH1 0 -1184
DWIDTH1 0 -45
BITMAP 
F00000
F00000
F00000
F00000
F00000
F00000
F0FF00
F3FFC0
F7FFE0
FF03E0
FC01F0
F800F0
F000F0
F000F0
F000F0
F000F0
F000F0
F000F0
F000F0
F000F0
F000F0
F000F0
F000F0
F000F0
F000F0
F000F0
F000F0
ENDCHAR
STARTCHAR i
ENCODING 105
SWIDTH 263 0
DWIDTH 10 0
BBX 4 27 3 0
VVECTOR 5 36
SWIDTH1 0 -1184
DWIDTH1 0 -45
BITMAP 
F0
F0
F0
F0
00
00
00
F0
F0
F0
F0
F0
F0
F0
F0
F0
F0
F0
F0
F0
F0
F0
F0
F0
F0
F0
F0
ENDCHAR
STARTCHAR j
ENCODING 106
SWIDTH 263 0
DWIDTH 10 0
BBX 7 35 0 -8
VVECTOR 2 36
SWIDTH1 0 -1184
DWIDTH1 0 -45
BITMAP 
1E
1E
1E
1E
00
00
00
1E
1E
1E
1E
1E
1E
1E
1E
1E
1E
1E
1E
1E
1E
1E
1E
1E
1E
1E
1E
1E
1E
1E
1E
1E
FE
FC
F0
ENDCHAR
STARTCHAR k
ENCODING 107
SWIDTH 605 0
DWIDTH 23 0
BBX 19 27 3 0
VVECTOR 14 36
SWIDTH1 0 -1184
DWIDTH1 0 -45
BITMAP 
F00000
F00000
F00000
F00000
F00000
F00000
F00000
F003E0
F00780
F01F00
F03E00
F07C00
F0F800
F1F000
F3E000
F7E000
FFF000
FE7800
FC7800
F83C00
F01E00
F01E00
F00F00
F00F80
F00780
F003C0
F003E0
ENDCHAR
STARTCHAR l
ENCODING 108
SWIDTH 263 0
DWIDTH 10 0
BBX 4 27 3 0
VVECTOR 5 36
SWIDTH1 0 -1184
DWIDTH1 0 -45
BITMAP 
F0
F0
F0
F0
F0
F0
F0
F0
F0
F0
F0
F0
F0
F0
F0
F0
F0
F0
F0
F0
F0
F0
F0
F0
F0
F0
F0
ENDCHAR
STARTCHAR m
ENCODING 109
SWIDTH 1000 0
DWIDTH 38 0
BBX 32 21 3 0
VVECTOR 19 36
SWIDTH1 0 -1184
DWIDTH1 0 -45
BITMAP 
007803E0
F3FE0FF8
F7FFBFFE
FE0FF83E
FC07F01F
F803E00F
F003C00F
F003C00F
F003C00F
F003C00F
F003C00F
F003C00F
F003C00F
F003C00F
F003C00F
F003C00F
F003C00F
F003C00F
F003C00F
F003C00F
F003C00F
ENDCHAR
STARTCHAR n
ENCODING 110
SWIDTH 684 0
DWIDTH 26 0
BBX 20 21 3 0
VVECTOR 13 36
SWIDTH1 0 -1184
DWIDTH1 0 -45
BITMAP 
007C00
F1FF80
F7FFE0
FF03E0
FC01F0
F800F0
F800F0
F000F0
F000F0
F000F0
F000F0
F000F0
F000F0
F000F0
F000F0
F000F0
F000F0
F000F0
F000F0
F000F0
F000F0
ENDCHAR
STARTCHAR o
ENCODING 111
SWIDTH 684 0
DWIDTH 26 0
BBX 22 21 2 0
VVECTOR 13 36
SWIDTH1 0 -1184
DWIDTH1 0 -45
BITMAP 
01FE00
07FF80
1FFFE0
3F03F0
3C00F0
780078
780078
F0003C
F0003C
F0003C
F0003C
F0003C
F0003C
F0003C
780078
780078
3C00F0
3F03F0
1FFFE0
07FF80
01FE00
ENDCHAR
STARTCHAR p
ENCODING 112
SWIDTH 711 0
DWIDTH 27 0
BBX 22 29 3 -8
VVECTOR 15 36
SWIDTH1 0 -1184
DWIDTH1 0 -45
BITMAP 
007C00
F1FF80
F7FFE0
FF03F0
FC00F0
F80078
F80078
F0003C
F0003C
F0003C
F0003C
F0003C
F0003C
F0003C
F80078
F80078
FC01F0
FF03F0
F7FFE0
F3FF80
F0FE00
F00000
F00000
F00000
F00000
F00000
F00000
F00000
F00000
ENDCHAR
STARTCHAR q
ENCODING 113
SWIDTH 711 0
DWIDTH 27 0
BBX 22 29 2 -8
VVECTOR 13 36
SWIDTH1 0 -1184
DWIDTH1 0 -45
BITMAP 
00F800
07FE3C
1FFFBC
3F03FC
3C00FC
78007C
78007C
F0003C
F0003C
F0003C
F0003C
F0003C
F0003C
F0003C
78007C
7C007C
3E00FC
3F03FC
1FFFBC
07FF3C
01FC3C
00003C
00003C
00003C
00003C
00003C
00003C
00003C
00003C
ENDCHAR
STARTCHAR r
ENCODING 114
SWIDTH 395 0
DWIDTH 15 0
BBX 11 21 3 0
VVECTOR 10 36
SWIDTH1 0 -1184
DWIDTH1 0 -45
BITMAP 
00E0
F3E0
F7E0
FE00
FC00
F800
F000
F000
F000
F000
F000
F000
F000
F000
F000
F000
F000
F000
F000
F000
F000
ENDCHAR
STARTCHAR s
ENCODING 115
SWIDTH 579 0
DWIDTH 22 0
BBX 19 21 1 0
VVECTOR 10 36
SWIDTH1 0 -1184
DWIDTH1 0 -45
BITMAP 
03F800
0FFE00
3FFF80
3E0FC0
7803C0
7803C0
780000
7E0000
3FE000
1FFE00
07FF80
007FC0
0007E0
0001E0
F001E0
7801E0
7803E0
7E07C0
3FFF80
1FFF00
03FC00
ENDCHAR
STARTCHAR t
ENCODING 116
SWIDTH 342 0
DWIDTH 13 0
BBX 12 25 0 0
VVECTOR 6 36
SWIDTH1 0 -1184
DWIDTH1 0 -45
BITMAP 
0F00
0F00
0F00
0F00
0F00
FFF0
FFF0
FFF0
0F00
0F00
0F00
0F00
0F00
0F00
0F00
0F00
0F00
0F00
0F00
0F00
0F00
0F00
0FF0
07F0
03F0
ENDCHAR
STARTCHAR u
ENCODING 117
SWIDTH 684 0
DWIDTH 26 0
BBX 20 20 3 0
VVECTOR 13 36
SWIDTH1 0 -1184
DWIDTH1 0 -45
BITMAP 
F000F0
F000F0
F000F0
F000F0
F000F0
F000F0
F000F0
F000F0
F000F0
F000F0
F000F0
F000F0
F000F0
F001F0
F001F0
F803F0
7C0FF0
7FFEF0
3FFCF0
07F0F0
ENDCHAR
STARTCHAR v
ENCODING 118
SWIDTH 579 0
DWIDTH 22 0
BBX 22 20 0 0
VVECTOR 11 36
SWIDTH1 0 -1184
DWIDTH1 0 -45
BITMAP 
F8007C
780078
7800F8
3C00F0
3C00F0
1E01E0
1E01E0
1F03E0
0F03C0
0F03C0
078780
078780
03CF00
03CF00
01CE00
01FE00
01FE00
00FC00
00FC00
007800
ENDCHAR
STARTCHAR w
ENCODING 119
SWIDTH 868 0
DWIDTH 33 0
BBX 33 20 0 0
VVECTOR 17 36
SWIDTH1 0 -1184
DWIDTH1 0 -45
BITMAP 
F003E00780
7803E00F00
7807F00F00
7807F00F00
3C07F01E00
3C0F781E00
3C0F781E00
1E0E383C00
1E1E3C3C00
1E1E3C3C00
0F1C1C3800
0F3C1E7800
0F3C1E7800
07380E7000
07F80FF000
07F80FF000
03F007E000
03F007E000
03F007E000
01E003C000
ENDCHAR
STARTCHAR x
ENCODING 120
SWIDTH 579 0
DWIDTH 22 0
BBX 22 20 0 0
VVECTOR 11 36
SWIDTH1 0 -1184
DWIDTH1 0 -45
BITMAP 
FC00F8
3C00F0
3E01E0
1F03E0
0F87C0
07CF80
03CF00
01FE00
01FC00
00FC00
00FC00
01FE00
03FF00
07CF80
0F8780
0F07C0
1E03E0
3E01F0
7C00F8
F8007C
ENDCHAR
STARTCHAR y
ENCODING 121
SWIDTH 605 0
DWIDTH 23 0
BBX 22 28 0 -8
VVECTOR 11 36
SWIDTH1 0 -1184
DWIDTH1 0 -45
BITMAP 
F8007C
780078
780078
7C00F0
3C00F0
3E01F0
1E01E0
1E01E0
0F03C0
0F03C0
0F8780
078780
07CF80
03CF00
03CF00
01FE00
01FE00
01FC00
00FC00
00FC00
007800
007800
00F000
00F000
01E000
1FE000
1FC000
1F0000
ENDCHAR
STARTCHAR z
ENCODING 122
SWIDTH 579 0
DWIDTH 22 0
BBX 20 20 1 0
VVECTOR 11 36
SWIDTH1 0 -1184
DWIDTH1 0 -45
BITMAP 
7FFFE0
7FFFE0
7FFFE0
0003E0
0007C0
000F80
001F00
003E00
007C00
00F800
01F000
03E000
07C000
0F8000
1F0000
3E0000
7C0000
FFFFF0
FFFFF0
FFFFF0
ENDCHAR
STARTCHAR braceleft
ENCODING 123
SWIDTH 605 0
DWIDTH 23 0
BBX 15 34 4 -8
VVECTOR 12 36
SWIDTH1 0 -1184
DWIDTH1 0 -45
BITMAP 
003E
00FE
01FE
03E0
03C0
03C0
03C0
03C0
03C0
03C0
03C0
03C0
03C0
07C0
0F80
FF00
F800
FF00
0F80
07C0
03C0
03C0
03C0
03C0
03C0
03C0
03C0
03C0
03C0
03C0
03E0
01FE
00FE
003E
ENDCHAR
STARTCHAR bar
ENCODING 124
SWIDTH 605 0
DWIDTH 23 0
BBX 3 37 10 -9
VVECTOR 12 36
SWIDTH1 0 -1184
DWIDTH1 0 -45
BITMAP 
E0
E0
E0
E0
E0
E0
E0
E0
E0
E0
E0
E0
E0
E0
E0
E0
E0
E0
E0
E0
E0
E0
E0
E0
E0
E0
E0
E0
E0
E0
E0
E0
E0
E0
E0
E0
E0
ENDCHAR
STARTCHAR braceright
ENCODING 125
SWIDTH 605 0
DWIDTH 23 0
BBX 15 34 4 -8
VVECTOR 12 36
SWIDTH1 0 -1184
DWIDTH1 0 -45
BITMAP 
F800
FE00
FF00
0F80
0780
0780
0780
0780
0780
0780
0780
0780
0780
07C0
03E0
01FE
003E
01FE
03E0
07C0
0780
0780
0780
0780
0780
0780
0780
0780
0780
0780
0F80
FF00
FE00
F800
ENDCHAR
STARTCHAR asciitilde
ENCODING 126
SWIDTH 1184 0
DWIDTH 45 0
BBX 27 8 9 17
VVECTOR 23 36
SWIDTH1 0 -1184
DWIDTH1 0 -45
BITMAP 
07E000E0
1FF800E0
3FFC00E0
783E01E0
F00F83C0
E007FF80
E003FF00
E000FC00
ENDCHAR
STARTCHAR char7F
ENCODING 127
SWIDTH 0 0
DWIDTH 0 0
BBX 0 0 0 -9
VVECTOR 0 -9
SWIDTH1 0 0
DWIDTH1 0 0
BITMAP 
ENDCHAR
STARTCHAR Ccedilla
ENCODING 128
SWIDTH 842 0
DWIDTH 32 0
BBX 27 36 3 -8
VVECTOR 17 36
SWIDTH1 0 -1184
DWIDTH1 0 -45
BITMAP 
003FE000
01FFFC00
07FFFF00
0FE03F80
1F000F80
3E0007C0
3C0003C0
7C0001E0
780001E0
78000000
F0000000
F0000000
F0000000
F0000000
F0000000
F0000000
F0000000
F00001E0
780001E0
780001E0
7C0001C0
3C0003C0
3E0007C0
1F800F80
0FE03F00
07FFFE00
01FFF800
003FE000
00060000
00060000
0007C000
0007E000
00007000
00007000
007FE000
003FC000
ENDCHAR
STARTCHAR udieresis
ENCODING 129
SWIDTH 684 0
DWIDTH 26 0
BBX 20 27 3 0
VVECTOR 13 36
SWIDTH1 0 -1184
DWIDTH1 0 -45
BITMAP 
078F00
078F00
078F00
078F00
000000
000000
000000
F000F0
F000F0
F000F0
F000F0
F000F0
F000F0
F000F0
F000F0
F000F0
F000F0
F000F0
F000F0
F000F0
F001F0
F001F0
F803F0
7C0FF0
7FFEF0
3FFCF0
07F0F0
ENDCHAR
STARTCHAR eacute
ENCODING 130
SWIDTH 658 0
DWIDTH 25 0
BBX 21 28 2 0
VVECTOR 13 36
SWIDTH1 0 -1184
DWIDTH1 0 -45
BITMAP 
001F00
003C00
003800
007000
00E000
01C000
000000
01FC00
07FF80
1FFFC0
3F03E0
3C01F0
7800F0
780078
F00078
F00078
FFFFF8
FFFFF8
FFFFF8
F00000
F00000
780078
7800F0
7C01F0
3F03E0
1FFFC0
0FFF80
01FC00
ENDCHAR
STARTCHAR acircumflex
ENCODING 131
SWIDTH 658 0
DWIDTH 25 0
BBX 22 28 2 0
VVECTOR 14 36
SWIDTH1 0 -1184
DWIDTH1 0 -45
BITMAP 
00F800
01FC00
01DC00
038E00
070700
0E0380
000000
03FE00
0FFFC0
1FFFE0
3E03F0
7800F0
7800F0
0000F0
0001F0
01FFF0
1FFFF0
3FF8F0
7E00F0
F800F0
F000F0
F000F0
F001F0
F803F0
7C0FF0
7FFEFC
3FFC7C
0FE03C
ENDCHAR
STARTCHAR adieresis
ENCODING 132
SWIDTH 658 0
DWIDTH 25 0
BBX 22 27 2 0
VVECTOR 14 36
SWIDTH1 0 -1184
DWIDTH1 0 -45
BITMAP 
078F00
078F00
078F00
078F00
000000
000000
03FE00
0FFFC0
1FFFE0
3E03F0
7800F0
7800F0
0000F0
0001F0
01FFF0
1FFFF0
3FF8F0
7E00F0
F800F0
F000F0
F000F0
F001F0
F803F0
7C0FF0
7FFEFC
3FFC7C
0FE03C
ENDCHAR
STARTCHAR agrave
ENCODING 133
SWIDTH 658 0
DWIDTH 25 0
BBX 22 28 2 0
VVECTOR 14 36
SWIDTH1 0 -1184
DWIDTH1 0 -45
BITMAP 
07C000
01E000
00E000
007000
003800
001C00
000000
03FE00
0FFFC0
1FFFE0
3E03F0
7800F0
7800F0
0000F0
0001F0
01FFF0
1FFFF0
3FF8F0
7E00F0
F800F0
F000F0
F000F0
F001F0
F803F0
7C0FF0
7FFEFC
3FFC7C
0FE03C
ENDCHAR
STARTCHAR aring
ENCODING 134
SWIDTH 658 0
DWIDTH 25 0
BBX 22 29 2 0
VVECTOR 14 36
SWIDTH1 0 -1184
DWIDTH1 0 -45
BITMAP 
00F800
01FE00
038E00
030700
038600
01FE00
00F800
000000
03FE00
0FFFC0
1FFFE0
3E03F0
7800F0
7800F0
0000F0
0001F0
01FFF0
1FFFF0
3FF8F0
7E00F0
F800F0
F000F0
F000F0
F001F0
F803F0
7C0FF0
7FFEFC
3FFC7C
0FE03C
ENDCHAR
STARTCHAR ccedilla
ENCODING 135
SWIDTH 632 0
DWIDTH 24 0
BBX 21 29 2 -8
VVECTOR 13 36
SWIDTH1 0 -1184
DWIDTH1 0 -45
BITMAP 
01FE00
07FF80
1FFFE0
3F03F0
7C00F0
780078
780078
F00000
F00000
F00000
F00000
F00000
F00000
F00078
780078
7800F0
7C01F0
3F03E0
1FFFC0
0FFF80
01FC00
006000
006000
007C00
007E00
000700
000700
07FE00
03FC00
ENDCHAR
STARTCHAR ecircumflex
ENCODING 136
SWIDTH 658 0
DWIDTH 25 0
BBX 21 28 2 0
VVECTOR 13 36
SWIDTH1 0 -1184
DWIDTH1 0 -45
BITMAP 
00F800
01FC00
01DC00
038E00
070700
0E0380
000000
01FC00
07FF80
1FFFC0
3F03E0
3C01F0
7800F0
780078
F00078
F00078
FFFFF8
FFFFF8
FFFFF8
F00000
F00000
780078
7800F0
7C01F0
3F03E0
1FFFC0
0FFF80
01FC00
ENDCHAR
STARTCHAR edieresis
ENCODING 137
SWIDTH 658 0
DWIDTH 25 0
BBX 21 27 2 0
VVECTOR 13 36
SWIDTH1 0 -1184
DWIDTH1 0 -45
BITMAP 
078F00
078F00
078F00
078F00
000000
000000
01FC00
07FF80
1FFFC0
3F03E0
3C01F0
7800F0
780078
F00078
F00078
FFFFF8
FFFFF8
FFFFF8
F00000
F00000
780078
7800F0
7C01F0
3F03E0
1FFFC0
0FFF80
01FC00
ENDCHAR
STARTCHAR egrave
ENCODING 138
SWIDTH 658 0
DWIDTH 25 0
BBX 21 28 2 0
VVECTOR 13 36
SWIDTH1 0 -1184
DWIDTH1 0 -45
BITMAP 
07C000
01E000
00E000
007000
003800
001C00
000000
01FC00
07FF80
1FFFC0
3F03E0
3C01F0
7800F0
780078
F00078
F00078
FFFFF8
FFFFF8
FFFFF8
F00000
F00000
780078
7800F0
7C01F0
3F03E0
1FFFC0
0FFF80
01FC00
ENDCHAR
STARTCHAR idieresis
ENCODING 139
SWIDTH 263 0
DWIDTH 10 0
BBX 11 27 0 0
VVECTOR 6 36
SWIDTH1 0 -1184
DWIDTH1 0 -45
BITMAP 
F1E0
F1E0
F1E0
F1E0
0000
0000
0000
1E00
1E00
1E00
1E00
1E00
1E00
1E00
1E00
1E00
1E00
1E00
1E00
1E00
1E00
1E00
1E00
1E00
1E00
1E00
1E00
ENDCHAR
STARTCHAR icircumflex
ENCODING 140
SWIDTH 263 0
DWIDTH 10 0
BBX 13 28 -1 0
VVECTOR 6 36
SWIDTH1 0 -1184
DWIDTH1 0 -45
BITMAP 
0F80
1FC0
1DC0
38E0
7070
E038
0000
0000
0F00
0F00
0F00
0F00
0F00
0F00
0F00
0F00
0F00
0F00
0F00
0F00
0F00
0F00
0F00
0F00
0F00
0F00
0F00
0F00
ENDCHAR
STARTCHAR igrave
ENCODING 141
SWIDTH 263 0
DWIDTH 10 0
BBX 9 28 0 0
VVECTOR 4 36
SWIDTH1 0 -1184
DWIDTH1 0 -45
BITMAP 
F800
3C00
1C00
0E00
0700
0380
0000
0000
1E00
1E00
1E00
1E00
1E00
1E00
1E00
1E00
1E00
1E00
1E00
1E00
1E00
1E00
1E00
1E00
1E00
1E00
1E00
1E00
ENDCHAR
STARTCHAR Adieresis
ENCODING 142
SWIDTH 763 0
DWIDTH 29 0
BBX 29 35 0 0
VVECTOR 15 36
SWIDTH1 0 -1184
DWIDTH1 0 -45
BITMAP 
0078F000
0078F000
0078F000
0078F000
00000000
00000000
00000000
00000000
000F8000
001FC000
001FC000
003FE000
003DE000
003DE000
0078F000
0078F000
00F8F800
00F07800
01F07C00
01E03C00
03E03E00
03C03E00
03C01E00
07C01F00
07FFFF00
0FFFFF80
0FFFFF80
1F0007C0
1E0007C0
3E0003E0
3E0003E0
3C0001E0
7C0001F0
780000F0
F80000F8
ENDCHAR
STARTCHAR Aring
ENCODING 143
SWIDTH 763 0
DWIDTH 29 0
BBX 29 36 0 0
VVECTOR 15 36
SWIDTH1 0 -1184
DWIDTH1 0 -45
BITMAP 
000F8000
001FC000
0038E000
00306000
00306000
0038E000
001FC000
000F8000
00000000
000F8000
001FC000
001FC000
003FE000
003DE000
003DE000
0078F000
0078F000
00F8F800
00F07800
01F07C00
01E03C00
03E03E00
03E03E00
03C01E00
07C01F00
07FFFF00
0FFFFF80
0FFFFF80
1F0007C0
1F0007C0
3E0003E0
3E0003E0
3C0001E0
7C0001F0
780000F0
F80000F8
ENDCHAR
STARTCHAR Eacute
ENCODING 144
SWIDTH 763 0
DWIDTH 29 0
BBX 23 36 4 0
VVECTOR 17 36
SWIDTH1 0 -1184
DWIDTH1 0 -45
BITMAP 
000F80
001E00
001C00
003800
007000
00E000
000000
000000
000000
FFFFFE
FFFFFE
FFFFFE
F00000
F00000
F00000
F00000
F00000
F00000
F00000
F00000
F00000
FFFFF8
FFFFF8
FFFFF8
F00000
F00000
F00000
F00000
F00000
F00000
F00000
F00000
F00000
FFFFFE
FFFFFE
FFFFFE
ENDCHAR
STARTCHAR ae
ENCODING 145
SWIDTH 1053 0
DWIDTH 40 0
BBX 36 21 2 0
VVECTOR 20 36
SWIDTH1 0 -1184
DWIDTH1 0 -45
BITMAP 
03FC03F800
0FFF0FFF00
1FFFDFFF80
3E07FE07C0
3C01F803E0
7801F001E0
7801F000E0
0001E000F0
0007E000F0
03FFFFFFF0
1FFFFFFFF0
3FF9FFFFF0
7C01E00000
F801E00000
F001F000F0
F003F001E0
F807F803E0
7C0F7C07C0
7FFE7FFF80
3FFC1FFF00
0FE007F800
ENDCHAR
STARTCHAR AE
ENCODING 146
SWIDTH 1132 0
DWIDTH 43 0
BBX 42 27 -1 0
VVECTOR 19 36
SWIDTH1 0 -1184
DWIDTH1 0 -45
BITMAP 
0003FFFFFFC0
0007FFFFFFC0
0007FFFFFFC0
000F0F000000
000F0F000000
001E0F000000
001E0F000000
003C0F000000
003C0F000000
00780F000000
00780F000000
00F00FFFFF00
01F00FFFFF00
01E00FFFFF00
03E00F000000
03FFFF000000
07FFFF000000
07FFFF000000
0F800F000000
0F000F000000
1F000F000000
1E000F000000
3E000F000000
3E000F000000
7C000FFFFFC0
7C000FFFFFC0
F8000FFFFFC0
ENDCHAR
STARTCHAR ocircumflex
ENCODING 147
SWIDTH 684 0
DWIDTH 26 0
BBX 22 28 2 0
VVECTOR 13 36
SWIDTH1 0 -1184
DWIDTH1 0 -45
BITMAP 
007C00
00FE00
00EE00
01C700
038380
0701C0
000000
01FE00
07FF80
1FFFE0
3F03F0
3C00F0
780078
780078
F0003C
F0003C
F0003C
F0003C
F0003C
F0003C
F0003C
780078
780078
3C00F0
3F03F0
1FFFE0
07FF80
01FE00
ENDCHAR
STARTCHAR odieresis
ENCODING 148
SWIDTH 684 0
DWIDTH 26 0
BBX 22 27 2 0
VVECTOR 13 36
SWIDTH1 0 -1184
DWIDTH1 0 -45
BITMAP 
03C780
03C780
03C780
03C780
000000
000000
01FE00
07FF80
1FFFE0
3F03F0
3C00F0
780078
780078
F0003C
F0003C
F0003C
F0003C
F0003C
F0003C
F0003C
780078
780078
3C00F0
3F03F0
1FFFE0
07FF80
01FE00
ENDCHAR
STARTCHAR ograve
ENCODING 149
SWIDTH 684 0
DWIDTH 26 0
BBX 22 28 2 0
VVECTOR 13 36
SWIDTH1 0 -1184
DWIDTH1 0 -45
BITMAP 
03E000
00F000
007000
003800
001C00
000E00
000000
01FE00
07FF80
1FFFE0
3F03F0
3C00F0
780078
780078
F0003C
F0003C
F0003C
F0003C
F0003C
F0003C
F0003C
780078
780078
3C00F0
3F03F0
1FFFE0
07FF80
01FE00
ENDCHAR
STARTCHAR ucircumflex
ENCODING 150
SWIDTH 684 0
DWIDTH 26 0
BBX 20 28 3 0
VVECTOR 13 36
SWIDTH1 0 -1184
DWIDTH1 0 -45
BITMAP 
00F800
01FC00
01DC00
038E00
070700
0E0380
000000
000000
F000F0
F000F0
F000F0
F000F0
F000F0
F000F0
F000F0
F000F0
F000F0
F000F0
F000F0
F000F0
F000F0
F001F0
F001F0
F803F0
7C0FF0
7FFEF0
3FFCF0
07F0F0
ENDCHAR
STARTCHAR ugrave
ENCODING 151
SWIDTH 684 0
DWIDTH 26 0
BBX 20 28 3 0
VVECTOR 13 36
SWIDTH1 0 -1184
DWIDTH1 0 -45
BITMAP 
07C000
01E000
00E000
007000
003800
001C00
000000
000000
F000F0
F000F0
F000F0
F000F0
F000F0
F000F0
F000F0
F000F0
F000F0
F000F0
F000F0
F000F0
F000F0
F001F0
F001F0
F803F0
7C0FF0
7FFEF0
3FFCF0
07F0F0
ENDCHAR
STARTCHAR ydieresis
ENCODING 152
SWIDTH 605 0
DWIDTH 23 0
BBX 22 35 0 -8
VVECTOR 11 36
SWIDTH1 0 -1184
DWIDTH1 0 -45
BITMAP 
03C780
03C780
03C780
03C780
000000
000000
000000
F8007C
780078
780078
7C00F0
3C00F0
3E01F0
1E01E0
1E01E0
0F03C0
0F03C0
0F8780
078780
07CF80
03CF00
03CF00
01FE00
01FE00
01FC00
00FC00
00FC00
007800
007800
00F000
00F000
01E000
1FE000
1FC000
1F0000
ENDCHAR
STARTCHAR Odieresis
ENCODING 153
SWIDTH 921 0
DWIDTH 35 0
BBX 30 35 3 0
VVECTOR 19 36
SWIDTH1 0 -1184
DWIDTH1 0 -45
BITMAP 
003C7800
003C7800
003C7800
003C7800
00000000
00000000
00000000
003FF000
01FFFE00
07FFFF80
0FE01FC0
1F8007E0
3E0001F0
3C0000F0
7C0000F8
78000078
78000078
F000003C
F000003C
F000003C
F000003C
F000003C
F000003C
F000003C
F000003C
78000078
78000078
7C0000F8
3C0000F0
3E0001F0
1F8007E0
0FE01FC0
07FFFF80
01FFFE00
003FF000
ENDCHAR
STARTCHAR Udieresis
ENCODING 154
SWIDTH 842 0
DWIDTH 32 0
BBX 25 35 4 0
VVECTOR 17 36
SWIDTH1 0 -1184
DWIDTH1 0 -45
BITMAP 
01E3C000
01E3C000
01E3C000
01E3C000
00000000
00000000
00000000
00000000
F0000780
F0000780
F0000780
F0000780
F0000780
F0000780
F0000780
F0000780
F0000780
F0000780
F0000780
F0000780
F0000780
F0000780
F0000780
F0000780
F0000780
F0000780
F0000780
F0000780
F8000F80
78000F00
7E003F00
3F80FE00
1FFFFC00
0FFFF000
01FF8000
ENDCHAR
STARTCHAR oslash
ENCODING 155
SWIDTH 684 0
DWIDTH 26 0
BBX 24 21 1 0
VVECTOR 13 36
SWIDTH1 0 -1184
DWIDTH1 0 -45
BITMAP 
00FF03
03FFC6
07FFFC
0F81F8
1E0078
3C00FC
3C01FC
78039E
78061E
780C1E
78181E
78301E
78601E
78C01E
3F803C
3F003C
1E0078
1F81F8
3FFFF0
73FFC0
E0FF00
ENDCHAR
STARTCHAR sterling
ENCODING 156
SWIDTH 658 0
DWIDTH 25 0
BBX 23 27 1 0
VVECTOR 13 36
SWIDTH1 0 -1184
DWIDTH1 0 -45
BITMAP 
01FF80
07FFE0
1FFFF8
3F81FC
3E007C
7C003E
78001E
78001E
78001E
7C0000
3C0000
3E0000
1E0000
FFFF00
FFFF00
078000
078000
07C000
078000
078000
0F0000
0E0000
1C0000
3BFC04
FFFFFE
7E7FFE
2003F8
ENDCHAR
STARTCHAR Oslash
ENCODING 157
SWIDTH 921 0
DWIDTH 35 0
BBX 30 28 3 0
VVECTOR 19 36
SWIDTH1 0 -1184
DWIDTH1 0 -45
BITMAP 
003FF008
01FFFE1C
07FFFFB8
0FE01FF0
1F8007E0
3E0001F0
3C0003F0
7C0007F8
78000C78
78001878
F000707C
F000E03C
F001C03C
F003803C
F007003C
F00E003C
F01C003C
F030003C
78600078
78C00078
7F8000F8
3F0000F0
3E0001F0
1F8007E0
3FE01FC0
77FFFF80
E1FFFE00
403FF000
ENDCHAR
STARTCHAR currency
ENCODING 158
SWIDTH 711 0
DWIDTH 27 0
BBX 23 19 2 6
VVECTOR 14 36
SWIDTH1 0 -1184
DWIDTH1 0 -45
BITMAP 
400004
E0000E
78FE3C
3FFFF0
0F83E0
0E00E0
1C0070
380078
380038
380038
380038
380078
1C0070
0E00E0
0F83E0
3FFFF0
78FE3C
E0000E
400004
ENDCHAR
STARTCHAR florin
ENCODING 159
SWIDTH 658 0
DWIDTH 25 0
BBX 24 35 -1 -8
VVECTOR 10 36
SWIDTH1 0 -1184
DWIDTH1 0 -45
BITMAP 
00007E
0000FF
0001FE
0003E2
0003C0
000780
000780
000F80
000F00
000F00
03FFF8
03FFF8
03FFF8
001E00
001E00
003E00
003E00
003C00
003C00
003C00
007C00
007800
007800
007800
00F800
00F800
00F000
00F000
01F000
01E000
01E000
43C000
7FC000
FF8000
7E0000
ENDCHAR
STARTCHAR aacute
ENCODING 160
SWIDTH 658 0
DWIDTH 25 0
BBX 22 28 2 0
VVECTOR 14 36
SWIDTH1 0 -1184
DWIDTH1 0 -45
BITMAP 
001F00
003C00
003800
007000
00E000
01C000
000000
03FE00
0FFFC0
1FFFE0
3E03F0
7800F0
7800F0
0000F0
0001F0
01FFF0
1FFFF0
3FF8F0
7E00F0
F800F0
F000F0
F000F0
F001F0
F803F0
7C0FF0
7FFEFC
3FFC7C
0FE03C
ENDCHAR
STARTCHAR iacute
ENCODING 161
SWIDTH 263 0
DWIDTH 10 0
BBX 9 28 2 0
VVECTOR 8 36
SWIDTH1 0 -1184
DWIDTH1 0 -45
BITMAP 
0F80
1E00
1C00
3800
7000
E000
0000
0000
7800
7800
7800
7800
7800
7800
7800
7800
7800
7800
7800
7800
7800
7800
7800
7800
7800
7800
7800
7800
ENDCHAR
STARTCHAR oacute
ENCODING 162
SWIDTH 684 0
DWIDTH 26 0
BBX 22 28 2 0
VVECTOR 13 36
SWIDTH1 0 -1184
DWIDTH1 0 -45
BITMAP 
000F80
001E00
001C00
003800
007000
00E000
000000
01FE00
07FF80
1FFFE0
3F03F0
3C00F0
780078
780078
F0003C
F0003C
F0003C
F0003C
F0003C
F0003C
F0003C
780078
780078
3C00F0
3F03F0
1FFFE0
07FF80
01FE00
ENDCHAR
STARTCHAR uacute
ENCODING 163
SWIDTH 684 0
DWIDTH 26 0
BBX 20 28 3 0
VVECTOR 13 36
SWIDTH1 0 -1184
DWIDTH1 0 -45
BITMAP 
001F00
003C00
003800
007000
00E000
01C000
000000
000000
F000F0
F000F0
F000F0
F000F0
F000F0
F000F0
F000F0
F000F0
F000F0
F000F0
F000F0
F000F0
F000F0
F001F0
F001F0
F803F0
7C0FF0
7FFEF0
3FFCF0
07F0F0
ENDCHAR
STARTCHAR ntilde
ENCODING 164
SWIDTH 684 0
DWIDTH 26 0
BBX 20 27 3 0
VVECTOR 13 36
SWIDTH1 0 -1184
DWIDTH1 0 -45
BITMAP 
008180
07FF00
07FF00
0C0C00
000000
000000
007C00
F1FF80
F7FFE0
FF03E0
FC01F0
F800F0
F800F0
F000F0
F000F0
F000F0
F000F0
F000F0
F000F0
F000F0
F000F0
F000F0
F000F0
F000F0
F000F0
F000F0
F000F0
ENDCHAR
STARTCHAR Ntilde
ENCODING 165
SWIDTH 868 0
DWIDTH 33 0
BBX 26 35 4 0
VVECTOR 18 36
SWIDTH1 0 -1184
DWIDTH1 0 -45
BITMAP 
00206000
01FFC000
01FFC000
03030000
00000000
00000000
00000000
00000000
F80003C0
FC0003C0
FE0003C0
FE0003C0
FF0003C0
FF8003C0
F7C003C0
F3E003C0
F3F003C0
F1F003C0
F0F803C0
F07C03C0
F03E03C0
F03F03C0
F01F03C0
F00F83C0
F007C3C0
F003E3C0
F001F3C0
F001F3C0
F000FBC0
F0007FC0
F0003FC0
F0001FC0
F0001FC0
F0000FC0
F00007C0
ENDCHAR
STARTCHAR ordfeminine
ENCODING 166
SWIDTH 474 0
DWIDTH 18 0
BBX 16 14 2 13
VVECTOR 11 36
SWIDTH1 0 -1184
DWIDTH1 0 -45
BITMAP 
0FE0
3FF8
783C
701C
701C
003C
0FFC
3FDC
701C
E01C
E03C
F07C
7FDF
1F0F
ENDCHAR
STARTCHAR ordmasculine
ENCODING 167
SWIDTH 526 0
DWIDTH 20 0
BBX 17 14 2 13
VVECTOR 11 36
SWIDTH1 0 -1184
DWIDTH1 0 -45
BITMAP 
07F000
1FFC00
3C1E00
700700
F00780
E00380
E00380
E00380
E00380
F00780
700700
3C1E00
1FFC00
07F000
ENDCHAR
STARTCHAR questiondown
ENCODING 168
SWIDTH 632 0
DWIDTH 24 0
BBX 20 27 2 0
VVECTOR 12 36
SWIDTH1 0 -1184
DWIDTH1 0 -45
BITMAP 
00F000
00F000
00F000
00F000
000000
000000
000000
00F000
00F000
00F000
00E000
01E000
07C000
0F8000
1F0000
3E0000
7C0000
F80000
F000F0
F000F0
F000F0
F001F0
7803E0
7E0FC0
3FFFC0
1FFF00
03FC00
ENDCHAR
STARTCHAR quotedblleft
ENCODING 169
SWIDTH 500 0
DWIDTH 19 0
BBX 12 9 4 19
VVECTOR 11 36
SWIDTH1 0 -1184
DWIDTH1 0 -45
BITMAP 
3030
7070
E0E0
C0C0
C0C0
F0F0
F0F0
F0F0
F0F0
ENDCHAR
STARTCHAR quotedblright
ENCODING 170
SWIDTH 500 0
DWIDTH 19 0
BBX 12 9 4 18
VVECTOR 11 36
SWIDTH1 0 -1184
DWIDTH1 0 -45
BITMAP 
F0F0
F0F0
F0F0
F0F0
3030
3030
7070
E0E0
C0C0
ENDCHAR
STARTCHAR guilsinglleft
ENCODING 171
SWIDTH 289 0
DWIDTH 11 0
BBX 7 12 2 4
VVECTOR 6 36
SWIDTH1 0 -1184
DWIDTH1 0 -45
BITMAP 
02
06
1E
7C
F8
E0
E0
F8
7C
1E
06
02
ENDCHAR
STARTCHAR guilsinglright
ENCODING 172
SWIDTH 289 0
DWIDTH 11 0
BBX 7 12 2 4
VVECTOR 6 36
SWIDTH1 0 -1184
DWIDTH1 0 -45
BITMAP 
80
C0
F0
7C
3E
0E
0E
3E
7C
F0
C0
80
ENDCHAR
STARTCHAR exclamdown
ENCODING 173
SWIDTH 395 0
DWIDTH 15 0
BBX 4 27 5 0
VVECTOR 7 36
SWIDTH1 0 -1184
DWIDTH1 0 -45
BITMAP 
F0
F0
F0
F0
00
00
60
60
60
60
60
60
F0
F0
F0
F0
F0
F0
F0
F0
F0
F0
F0
F0
F0
F0
F0
ENDCHAR
STARTCHAR guillemotleft
ENCODING 174
SWIDTH 526 0
DWIDTH 20 0
BBX 16 12 2 4
VVECTOR 10 36
SWIDTH1 0 -1184
DWIDTH1 0 -45
BITMAP 
0201
0603
1E0F
7C3E
F87C
E070
E070
F87C
7C3E
1E0F
0603
0201
ENDCHAR
STARTCHAR guillemotright
ENCODING 175
SWIDTH 526 0
DWIDTH 20 0
BBX 16 12 2 4
VVECTOR 10 36
SWIDTH1 0 -1184
DWIDTH1 0 -45
BITMAP 
8040
C060
F078
7C3E
3E1F
0E07
0E07
3E1F
7C3E
F078
C060
8040
ENDCHAR
STARTCHAR atilde
ENCODING 176
SWIDTH 658 0
DWIDTH 25 0
BBX 22 27 2 0
VVECTOR 14 36
SWIDTH1 0 -1184
DWIDTH1 0 -45
BITMAP 
008180
07FF00
07FF00
0C0C00
000000
000000
03FE00
0FFFC0
1FFFE0
3E03F0
7800F0
7800F0
0000F0
0001F0
01FFF0
1FFFF0
3FF8F0
7E00F0
F800F0
F000F0
F000F0
F001F0
F803F0
7C0FF0
7FFEFC
3FFC7C
0FE03C
ENDCHAR
STARTCHAR otilde
ENCODING 177
SWIDTH 684 0
DWIDTH 26 0
BBX 22 27 2 0
VVECTOR 13 36
SWIDTH1 0 -1184
DWIDTH1 0 -45
BITMAP 
0040C0
03FF80
03FF80
060600
000000
000000
01FE00
07FF80
1FFFE0
3F03F0
3C00F0
780078
780078
F0003C
F0003C
F0003C
F0003C
F0003C
F0003C
F0003C
780078
780078
3C00F0
3F03F0
1FFFE0
07FF80
01FE00
ENDCHAR
STARTCHAR yen
ENCODING 178
SWIDTH 711 0
DWIDTH 27 0
BBX 26 26 1 0
VVECTOR 15 36
SWIDTH1 0 -1184
DWIDTH1 0 -45
BITMAP 
F80007C0
7C000F80
3C000F00
3E001F00
1F003E00
0F003C00
0F807C00
07C0F800
03C0F000
01E1E000
FFF1FFC0
FFF3FFC0
00FF8000
007F8000
FFFFFFC0
FFFFFFC0
001E0000
001E0000
001E0000
001E0000
001E0000
001E0000
001E0000
001E0000
001E0000
001E0000
ENDCHAR
STARTCHAR cent
ENCODING 179
SWIDTH 658 0
DWIDTH 25 0
BBX 20 28 2 -4
VVECTOR 12 36
SWIDTH1 0 -1184
DWIDTH1 0 -45
BITMAP 
000300
000600
000600
01FE00
07FF00
1FFFC0
3F1FE0
7C19E0
7818F0
7830F0
F03000
F03000
F06000
F06000
F06000
F0C000
F0C0F0
78C1F0
7981E0
3D83E0
3F8FC0
1FFF80
0FFF00
03FC00
060000
060000
060000
0C0000
ENDCHAR
STARTCHAR oe
ENCODING 180
SWIDTH 1105 0
DWIDTH 42 0
BBX 38 21 2 0
VVECTOR 21 36
SWIDTH1 0 -1184
DWIDTH1 0 -45
BITMAP 
01FC00FE00
07FF83FFC0
1FFFCFFFE0
3F07FF83F0
3C01FE00F8
7800FC0078
7800FC003C
F00078003C
F00078003C
F0007FFFFC
F0007FFFFC
F0007FFFFC
F000780000
F000780000
F800FC003C
7800FC0078
7C01FE00F8
3F07DF81F0
1FFF8FFFE0
0FFF07FFC0
01FC00FE00
ENDCHAR
STARTCHAR OE
ENCODING 181
SWIDTH 1368 0
DWIDTH 52 0
BBX 47 28 3 0
VVECTOR 27 36
SWIDTH1 0 -1184
DWIDTH1 0 -45
BITMAP 
001FC0000000
00FFF8FFFFFE
07FFFEFFFFFE
0FF03FFFFFFE
1F8007F00000
3F0001F00000
3C0000F00000
7C0000F00000
780000F00000
780000F00000
F00000F00000
F00000F00000
F00000FFFFF8
F00000FFFFF8
F00000FFFFF8
F00000F00000
F00000F00000
F00000F00000
F80000F00000
780000F00000
780000F00000
7C0000F00000
3E0001F00000
3F0003F00000
1F8007F00000
0FF03FFFFFFE
07FFFEFFFFFE
01FFF8FFFFFE
ENDCHAR
STARTCHAR Agrave
ENCODING 182
SWIDTH 763 0
DWIDTH 29 0
BBX 29 36 0 0
VVECTOR 15 36
SWIDTH1 0 -1184
DWIDTH1 0 -45
BITMAP 
007C0000
001E0000
000E0000
00070000
00038000
0001C000
00000000
00000000
00000000
000F8000
001FC000
001FC000
003FE000
003DE000
003DE000
0078F000
0078F000
00F8F800
00F07800
01F07C00
01E03C00
03E03E00
03C03E00
03C01E00
07C01F00
07FFFF00
0FFFFF80
0FFFFF80
1F0007C0
1E0007C0
3E0003E0
3E0003E0
3C0001E0
7C0001F0
780000F0
F80000F8
ENDCHAR
STARTCHAR Atilde
ENCODING 183
SWIDTH 763 0
DWIDTH 29 0
BBX 29 35 0 0
VVECTOR 15 36
SWIDTH1 0 -1184
DWIDTH1 0 -45
BITMAP 
00081800
007FF000
007FF000
00C0C000
00000000
00000000
00000000
00000000
000F8000
001FC000
001FC000
003FE000
003DE000
003DE000
0078F000
0078F000
00F8F800
00F07800
01F07C00
01E03C00
03E03E00
03C03E00
03C01E00
07C01F00
07FFFF00
0FFFFF80
0FFFFF80
1F0007C0
1E0007C0
3E0003E0
3E0003E0
3C0001E0
7C0001F0
780000F0
F80000F8
ENDCHAR
STARTCHAR Otilde
ENCODING 184
SWIDTH 921 0
DWIDTH 35 0
BBX 30 35 3 0
VVECTOR 19 36
SWIDTH1 0 -1184
DWIDTH1 0 -45
BITMAP 
00040C00
003FF800
003FF800
00606000
00000000
00000000
00000000
003FF000
01FFFE00
07FFFF80
0FE01FC0
1F8007E0
3E0001F0
3C0000F0
7C0000F8
78000078
78000078
F000003C
F000003C
F000003C
F000003C
F000003C
F000003C
F000003C
F000003C
78000078
78000078
7C0000F8
3C0000F0
3E0001F0
1F8007E0
0FE01FC0
07FFFF80
01FFFE00
003FF000
ENDCHAR
STARTCHAR section
ENCODING 185
SWIDTH 605 0
DWIDTH 23 0
BBX 19 32 2 -4
VVECTOR 12 36
SWIDTH1 0 -1184
DWIDTH1 0 -45
BITMAP 
03F800
0FFE00
1FFF00
1E1F00
3C0780
3C0780
3C0000
3E0000
1F8000
0FE000
1FF800
3DFE00
787F80
F01FC0
F007C0
F003E0
FC01E0
7E01E0
3F81E0
1FE3C0
07FF80
01FF00
007F00
001F00
000780
000780
3C0780
3C0780
3E0F80
1FFF00
0FFE00
03F800
ENDCHAR
STARTCHAR daggerdbl
ENCODING 186
SWIDTH 605 0
DWIDTH 23 0
BBX 20 31 2 -4
VVECTOR 13 36
SWIDTH1 0 -1184
DWIDTH1 0 -45
BITMAP 
00F000
00F000
00F000
00F000
00F000
00F000
00F000
FFFFF0
FFFFF0
FFFFF0
00F000
00F000
00F000
00F000
00F000
00F000
00F000
00F000
00F000
00F000
00F000
FFFFF0
FFFFF0
FFFFF0
00F000
00F000
00F000
00F000
00F000
00F000
00F000
ENDCHAR
STARTCHAR dagger
ENCODING 187
SWIDTH 605 0
DWIDTH 23 0
BBX 20 31 2 -4
VVECTOR 13 36
SWIDTH1 0 -1184
DWIDTH1 0 -45
BITMAP 
00F000
00F000
00F000
00F000
00F000
00F000
00F000
FFFFF0
FFFFF0
FFFFF0
00F000
00F000
00F000
00F000
00F000
00F000
00F000
00F000
00F000
00F000
00F000
00F000
00F000
00F000
00F000
00F000
00F000
00F000
00F000
00F000
00F000
ENDCHAR
STARTCHAR paragraph
ENCODING 188
SWIDTH 605 0
DWIDTH 23 0
BBX 20 26 1 0
VVECTOR 11 36
SWIDTH1 0 -1184
DWIDTH1 0 -45
BITMAP 
07FFF0
1FFFF0
3FE180
7FE180
FFE180
FFE180
FFE180
FFE180
7FE180
7FE180
3FE180
07E180
00E180
00E180
00E180
00E180
00E180
00E180
00E180
00E180
00E180
00E180
00E180
00E180
00E180
00E180
ENDCHAR
STARTCHAR copyright
ENCODING 189
SWIDTH 1000 0
DWIDTH 38 0
BBX 33 27 3 -1
VVECTOR 20 36
SWIDTH1 0 -1184
DWIDTH1 0 -45
BITMAP 
0007FC0000
003FFF0000
01F803C000
0380007000
0E00003800
1C03F80C00
380FFE0600
303E0F0700
603C070300
6078038300
E070000180
C0F0000180
C0F0000180
C0F0000180
C0F0000180
C0F0000180
C0F0000180
6078038300
607C078300
703E0F0700
381FFE0600
1C03F80C00
0E00003800
03C000F000
00F803C000
003FFF0000
0007F80000
ENDCHAR
STARTCHAR registered
ENCODING 190
SWIDTH 1000 0
DWIDTH 38 0
BBX 33 27 3 -1
VVECTOR 20 36
SWIDTH1 0 -1184
DWIDTH1 0 -45
BITMAP 
000FF00000
007FFF0000
01F00FC000
078000E000
0E00007800
1C00001C00
187FF80C00
307FFE0600
70780F0700
6078078300
6078078300
C078078180
C0780F0180
C07FFE0180
C07FF00180
C078780180
C0783C0180
60783C0300
60781E0300
70780F0700
38780F8E00
1C00001C00
0E00003800
078000F000
01F00FC000
007FFF0000
000FF00000
ENDCHAR
STARTCHAR trademark
ENCODING 191
SWIDTH 1000 0
DWIDTH 38 0
BBX 26 9 5 17
VVECTOR 17 36
SWIDTH1 0 -1184
DWIDTH1 0 -45
BITMAP 
FFC701C0
0C0783C0
0C0686C0
0C06C6C0
0C066CC0
0C066CC0
0C0638C0
0C0638C0
0C0610C0
ENDCHAR
STARTCHAR quotedblbase
ENCODING 192
SWIDTH 500 0
DWIDTH 19 0
BBX 12 9 4 -5
VVECTOR 11 36
SWIDTH1 0 -1184
DWIDTH1 0 -45
BITMAP 
F0F0
F0F0
F0F0
F0F0
3030
3030
7070
E0E0
C0C0
ENDCHAR
STARTCHAR ellipsis
ENCODING 193
SWIDTH 1158 0
DWIDTH 44 0
BBX 34 4 5 0
VVECTOR 22 36
SWIDTH1 0 -1184
DWIDTH1 0 -45
BITMAP 
F001E003C0
F001E003C0
F001E003C0
F001E003C0
ENDCHAR
STARTCHAR perthousand
ENCODING 194
SWIDTH 1500 0
DWIDTH 57 0
BBX 52 27 2 -1
VVECTOR 28 36
SWIDTH1 0 -1184
DWIDTH1 0 -45
BITMAP 
00000070000000
07C000E0000000
1FF000C0000000
3FF801C0000000
783C0380000000
F01E0700000000
E00E0600000000
E00E0E00000000
E00E1C00000000
F01E1800000000
783C3800000000
3FF87000000000
1FF0E000000000
07C0C0F8003E00
0001C3FE00FF80
000387FF01FFC0
00030F0783C1E0
00071E03C780F0
000E1C01C70070
001C1C01C70070
00181C01C70070
00381E03C780F0
00700F0783C1E0
00E007FF01FFC0
00E003FE00FF80
01C000F8003E00
03800000000000
ENDCHAR
STARTCHAR bullet
ENCODING 195
SWIDTH 816 0
DWIDTH 31 0
BBX 23 19 4 3
VVECTOR 16 36
SWIDTH1 0 -1184
DWIDTH1 0 -45
BITMAP 
00FE00
07FFC0
0FFFE0
1FFFF0
3FFFF8
7FFFFC
7FFFFC
FFFFFE
FFFFFE
FFFFFE
FFFFFE
FFFFFE
7FFFFC
7FFFFC
3FFFF8
1FFFF0
0FFFE0
07FFC0
00FE00
ENDCHAR
STARTCHAR endash
ENCODING 196
SWIDTH 605 0
DWIDTH 23 0
BBX 23 2 0 9
VVECTOR 12 36
SWIDTH1 0 -1184
DWIDTH1 0 -45
BITMAP 
FFFFFE
FFFFFE
ENDCHAR
STARTCHAR emdash
ENCODING 197
SWIDTH 1184 0
DWIDTH 45 0
BBX 45 2 0 9
VVECTOR 23 36
SWIDTH1 0 -1184
DWIDTH1 0 -45
BITMAP 
FFFFFFFFFFF8
FFFFFFFFFFF8
ENDCHAR
STARTCHAR degree
ENCODING 198
SWIDTH 395 0
DWIDTH 15 0
BBX 13 11 1 15
VVECTOR 8 36
SWIDTH1 0 -1184
DWIDTH1 0 -45
BITMAP 
0F80
3FE0
7070
E038
C018
C018
C018
6030
7070
3FE0
0F80
ENDCHAR
STARTCHAR Aacute
ENCODING 199
SWIDTH 763 0
DWIDTH 29 0
BBX 29 36 0 0
VVECTOR 15 36
SWIDTH1 0 -1184
DWIDTH1 0 -45
BITMAP 
0001F000
0003C000
00038000
00070000
000E0000
001C0000
00000000
00000000
00000000
000F8000
001FC000
001FC000
003FE000
003DE000
003DE000
0078F000
0078F000
00F8F800
00F07800
01F07C00
01E03C00
03E03E00
03C03E00
03C01E00
07C01F00
07FFFF00
0FFFFF80
0FFFFF80
1F0007C0
1E0007C0
3E0003E0
3E0003E0
3C0001E0
7C0001F0
780000F0
F80000F8
ENDCHAR
STARTCHAR Acircumflex
ENCODING 200
SWIDTH 763 0
DWIDTH 29 0
BBX 29 36 0 0
VVECTOR 15 36
SWIDTH1 0 -1184
DWIDTH1 0 -45
BITMAP 
000F8000
001FC000
001DC000
0038E000
00707000
00E03800
00000000
00000000
00000000
000F8000
001FC000
001FC000
003FE000
003DE000
003DE000
0078F000
0078F000
00F8F800
00F07800
01F07C00
01E03C00
03E03E00
03C03E00
03C01E00
07C01F00
07FFFF00
0FFFFF80
0FFFFF80
1F0007C0
1E0007C0
3E0003E0
3E0003E0
3C0001E0
7C0001F0
780000F0
F80000F8
ENDCHAR
STARTCHAR Egrave
ENCODING 201
SWIDTH 763 0
DWIDTH 29 0
BBX 23 36 4 0
VVECTOR 17 36
SWIDTH1 0 -1184
DWIDTH1 0 -45
BITMAP 
03E000
00F000
007000
003800
001C00
000E00
000000
000000
000000
FFFFFE
FFFFFE
FFFFFE
F00000
F00000
F00000
F00000
F00000
F00000
F00000
F00000
F00000
FFFFF8
FFFFF8
FFFFF8
F00000
F00000
F00000
F00000
F00000
F00000
F00000
F00000
F00000
FFFFFE
FFFFFE
FFFFFE
ENDCHAR
STARTCHAR Ecircumflex
ENCODING 202
SWIDTH 763 0
DWIDTH 29 0
BBX 23 36 4 0
VVECTOR 17 36
SWIDTH1 0 -1184
DWIDTH1 0 -45
BITMAP 
007C00
00FE00
00EE00
01C700
038380
0701C0
000000
000000
000000
FFFFFE
FFFFFE
FFFFFE
F00000
F00000
F00000
F00000
F00000
F00000
F00000
F00000
F00000
FFFFF8
FFFFF8
FFFFF8
F00000
F00000
F00000
F00000
F00000
F00000
F00000
F00000
F00000
FFFFFE
FFFFFE
FFFFFE
ENDCHAR
STARTCHAR Edieresis
ENCODING 203
SWIDTH 763 0
DWIDTH 29 0
BBX 23 35 4 0
VVECTOR 17 36
SWIDTH1 0 -1184
DWIDTH1 0 -45
BITMAP 
03C780
03C780
03C780
03C780
000000
000000
000000
000000
FFFFFE
FFFFFE
FFFFFE
F00000
F00000
F00000
F00000
F00000
F00000
F00000
F00000
F00000
FFFFF8
FFFFF8
FFFFF8
F00000
F00000
F00000
F00000
F00000
F00000
F00000
F00000
F00000
FFFFFE
FFFFFE
FFFFFE
ENDCHAR
STARTCHAR Igrave
ENCODING 204
SWIDTH 289 0
DWIDTH 11 0
BBX 9 36 1 0
VVECTOR 6 36
SWIDTH1 0 -1184
DWIDTH1 0 -45
BITMAP 
F800
3C00
1C00
0E00
0700
0380
0000
0000
0000
1E00
1E00
1E00
1E00
1E00
1E00
1E00
1E00
1E00
1E00
1E00
1E00
1E00
1E00
1E00
1E00
1E00
1E00
1E00
1E00
1E00
1E00
1E00
1E00
1E00
1E00
1E00
ENDCHAR
STARTCHAR Iacute
ENCODING 205
SWIDTH 289 0
DWIDTH 11 0
BBX 9 36 3 0
VVECTOR 9 36
SWIDTH1 0 -1184
DWIDTH1 0 -45
BITMAP 
0F80
1E00
1C00
3800
7000
E000
0000
0000
0000
7800
7800
7800
7800
7800
7800
7800
7800
7800
7800
7800
7800
7800
7800
7800
7800
7800
7800
7800
7800
7800
7800
7800
7800
7800
7800
7800
ENDCHAR
STARTCHAR Icircumflex
ENCODING 206
SWIDTH 289 0
DWIDTH 11 0
BBX 13 36 0 0
VVECTOR 7 36
SWIDTH1 0 -1184
DWIDTH1 0 -45
BITMAP 
0F80
1FC0
1DC0
38E0
7070
E038
0000
0000
0000
0F00
0F00
0F00
0F00
0F00
0F00
0F00
0F00
0F00
0F00
0F00
0F00
0F00
0F00
0F00
0F00
0F00
0F00
0F00
0F00
0F00
0F00
0F00
0F00
0F00
0F00
0F00
ENDCHAR
STARTCHAR Idieresis
ENCODING 207
SWIDTH 289 0
DWIDTH 11 0
BBX 11 35 1 0
VVECTOR 7 36
SWIDTH1 0 -1184
DWIDTH1 0 -45
BITMAP 
F1E0
F1E0
F1E0
F1E0
0000
0000
0000
0000
1E00
1E00
1E00
1E00
1E00
1E00
1E00
1E00
1E00
1E00
1E00
1E00
1E00
1E00
1E00
1E00
1E00
1E00
1E00
1E00
1E00
1E00
1E00
1E00
1E00
1E00
1E00
ENDCHAR
STARTCHAR Ograve
ENCODING 208
SWIDTH 921 0
DWIDTH 35 0
BBX 30 36 3 0
VVECTOR 19 36
SWIDTH1 0 -1184
DWIDTH1 0 -45
BITMAP 
003E0000
000F0000
00070000
00038000
0001C000
0000E000
00000000
00000000
003FF000
01FFFE00
07FFFF80
0FE01FC0
1F8007E0
3E0001F0
3C0000F0
7C0000F8
78000078
78000078
F000003C
F000003C
F000003C
F000003C
F000003C
F000003C
F000003C
F000003C
78000078
78000078
7C0000F8
3C0000F0
3E0001F0
1F8007E0
0FE01FC0
07FFFF80
01FFFE00
003FF000
ENDCHAR
STARTCHAR Oacute
ENCODING 209
SWIDTH 921 0
DWIDTH 35 0
BBX 30 36 3 0
VVECTOR 19 36
SWIDTH1 0 -1184
DWIDTH1 0 -45
BITMAP 
0000F800
0001E000
0001C000
00038000
00070000
000E0000
00000000
00000000
003FF000
01FFFE00
07FFFF80
0FE01FC0
1F8007E0
3E0001F0
3C0000F0
7C0000F8
78000078
78000078
F000003C
F000003C
F000003C
F000003C
F000003C
F000003C
F000003C
F000003C
78000078
78000078
7C0000F8
3C0000F0
3E0001F0
1F8007E0
0FE01FC0
07FFFF80
01FFFE00
003FF000
ENDCHAR
STARTCHAR Ocircumflex
ENCODING 210
SWIDTH 921 0
DWIDTH 35 0
BBX 30 36 3 0
VVECTOR 19 36
SWIDTH1 0 -1184
DWIDTH1 0 -45
BITMAP 
0007C000
000FE000
000EE000
001C7000
00383800
00701C00
00000000
00000000
003FF000
01FFFE00
07FFFF80
0FE01FC0
1F8007E0
3E0001F0
3C0000F0
7C0000F8
78000078
78000078
F000003C
F000003C
F000003C
F000003C
F000003C
F000003C
F000003C
F000003C
78000078
78000078
7C0000F8
3C0000F0
3E0001F0
1F8007E0
0FE01FC0
07FFFF80
01FFFE00
003FF000
ENDCHAR
STARTCHAR Scaron
ENCODING 211
SWIDTH 763 0
DWIDTH 29 0
BBX 25 36 2 0
VVECTOR 15 36
SWIDTH1 0 -1184
DWIDTH1 0 -45
BITMAP 
0380E000
01C1C000
00E38000
00770000
007F0000
003E0000
00000000
00000000
00FF8000
07FFF000
0FFFFC00
1F80FC00
3E003E00
3C001F00
78001F00
78000F00
78000F00
78000000
7C000000
3F800000
1FFC0000
0FFFE000
03FFFC00
001FFE00
0000FF00
00001F80
00000F80
F0000780
F0000780
F8000780
78000F80
7E001F00
3F807E00
1FFFFC00
07FFF800
00FFC000
ENDCHAR
STARTCHAR scaron
ENCODING 212
SWIDTH 579 0
DWIDTH 22 0
BBX 19 28 1 0
VVECTOR 10 36
SWIDTH1 0 -1184
DWIDTH1 0 -45
BITMAP 
0E0380
070700
038E00
01DC00
01FC00
00F800
000000
03F800
0FFE00
3FFF80
3E0FC0
7803C0
7803C0
780000
7E0000
3FE000
1FFE00
07FF80
007FC0
0007E0
0001E0
F001E0
7801E0
7803E0
7E07C0
3FFF80
1FFF00
03FC00
ENDCHAR
STARTCHAR Ugrave
ENCODING 213
SWIDTH 842 0
DWIDTH 32 0
BBX 25 36 4 0
VVECTOR 17 36
SWIDTH1 0 -1184
DWIDTH1 0 -45
BITMAP 
01F00000
00780000
00380000
001C0000
000E0000
00070000
00000000
00000000
00000000
F0000780
F0000780
F0000780
F0000780
F0000780
F0000780
F0000780
F0000780
F0000780
F0000780
F0000780
F0000780
F0000780
F0000780
F0000780
F0000780
F0000780
F0000780
F0000780
F0000780
F8000F80
78000F00
7E003F00
3F80FE00
1FFFFC00
0FFFF000
01FF8000
ENDCHAR
STARTCHAR Uacute
ENCODING 214
SWIDTH 842 0
DWIDTH 32 0
BBX 25 36 4 0
VVECTOR 17 36
SWIDTH1 0 -1184
DWIDTH1 0 -45
BITMAP 
0007C000
000F0000
000E0000
001C0000
00380000
00700000
00000000
00000000
00000000
F0000780
F0000780
F0000780
F0000780
F0000780
F0000780
F0000780
F0000780
F0000780
F0000780
F0000780
F0000780
F0000780
F0000780
F0000780
F0000780
F0000780
F0000780
F0000780
F0000780
F8000F80
78000F00
7E003F00
3F80FE00
1FFFFC00
0FFFF000
01FF8000
ENDCHAR
STARTCHAR Ucircumflex
ENCODING 215
SWIDTH 842 0
DWIDTH 32 0
BBX 25 36 4 0
VVECTOR 17 36
SWIDTH1 0 -1184
DWIDTH1 0 -45
BITMAP 
003E0000
007F0000
00770000
00E38000
01C1C000
0380E000
00000000
00000000
00000000
F0000780
F0000780
F0000780
F0000780
F0000780
F0000780
F0000780
F0000780
F0000780
F0000780
F0000780
F0000780
F0000780
F0000780
F0000780
F0000780
F0000780
F0000780
F0000780
F0000780
F8000F80
78000F00
7E003F00
3F80FE00
1FFFFC00
0FFFF000
01FF8000
ENDCHAR
STARTCHAR Ydieresis
ENCODING 216
SWIDTH 711 0
DWIDTH 27 0
BBX 28 35 0 0
VVECTOR 14 36
SWIDTH1 0 -1184
DWIDTH1 0 -45
BITMAP 
00F1E000
00F1E000
00F1E000
00F1E000
00000000
00000000
00000000
00000000
FC0003F0
7E0003E0
3E0007C0
1F000F80
1F800F80
0F801F00
07C03E00
03E03C00
03E07C00
01F0F800
00F8F000
0079E000
007FE000
003FC000
001F8000
000F0000
000F0000
000F0000
000F0000
000F0000
000F0000
000F0000
000F0000
000F0000
000F0000
000F0000
000F0000
ENDCHAR
STARTCHAR germandbls
ENCODING 217
SWIDTH 632 0
DWIDTH 24 0
BBX 19 27 3 0
VVECTOR 13 36
SWIDTH1 0 -1184
DWIDTH1 0 -45
BITMAP 
07F800
1FFE00
3FFF00
7C1F80
780780
F00380
F003C0
F003C0
F00780
F00780
F01F00
F1FE00
F1FE00
F1FF80
F00FC0
F003C0
F003E0
F001E0
F001E0
F001E0
F001E0
F003C0
F007C0
F01F80
F1FF00
F1FE00
F1FC00
ENDCHAR
STARTCHAR charDA
ENCODING 218
SWIDTH 0 0
DWIDTH 0 0
BBX 0 0 0 -9
VVECTOR 0 -9
SWIDTH1 0 0
DWIDTH1 0 0
BITMAP 
ENDCHAR
STARTCHAR charDB
ENCODING 219
SWIDTH 0 0
DWIDTH 0 0
BBX 0 0 0 -9
VVECTOR 0 -9
SWIDTH1 0 0
DWIDTH1 0 0
BITMAP 
ENDCHAR
STARTCHAR charDC
ENCODING 220
SWIDTH 0 0
DWIDTH 0 0
BBX 0 0 0 -9
VVECTOR 0 -9
SWIDTH1 0 0
DWIDTH1 0 0
BITMAP 
ENDCHAR
STARTCHAR charDD
ENCODING 221
SWIDTH 0 0
DWIDTH 0 0
BBX 0 0 0 -9
VVECTOR 0 -9
SWIDTH1 0 0
DWIDTH1 0 0
BITMAP 
ENDCHAR
STARTCHAR charDE
ENCODING 222
SWIDTH 0 0
DWIDTH 0 0
BBX 0 0 0 -9
VVECTOR 0 -9
SWIDTH1 0 0
DWIDTH1 0 0
BITMAP 
ENDCHAR
STARTCHAR charDF
ENCODING 223
SWIDTH 0 0
DWIDTH 0 0
BBX 0 0 0 -9
VVECTOR 0 -9
SWIDTH1 0 0
DWIDTH1 0 0
BITMAP 
ENDCHAR
STARTCHAR charE0
ENCODING 224
SWIDTH 0 0
DWIDTH 0 0
BBX 0 0 0 -9
VVECTOR 0 -9
SWIDTH1 0 0
DWIDTH1 0 0
BITMAP 
ENDCHAR
STARTCHAR beta
ENCODING 225
SWIDTH 632 0
DWIDTH 24 0
BBX 19 27 3 0
VVECTOR 13 36
SWIDTH1 0 -1184
DWIDTH1 0 -45
BITMAP 
07F800
1FFE00
3FFF00
7C1F80
780780
F00380
F003C0
F003C0
F00780
F00780
F01F00
F1FE00
F1FE00
F1FF80
F00FC0
F003C0
F003E0
F001E0
F001E0
F001E0
F001E0
F003C0
F007C0
F01F80
F1FF00
F1FE00
F1FC00
ENDCHAR
ENDFONT
